<?xml version="1.0" encoding="UTF-8" standalone="no"?>
<svg xmlns="http://www.w3.org/2000/svg" height="22.516" width="33.696" version="1.1" xmlns:xlink="http://www.w3.org/1999/xlink">
	<defs>
		<radialGradient id="rg0" gradientUnits="userSpaceOnUse" cy="422.82" cx="-344.93" gradientTransform="matrix(0.51,0,0,0.51,196.2399,-196.03749)" r="1.2859">
			<stop stop-color="#4F7F3E" offset="0.11"/>
			<stop stop-color="#75AA64" offset="0.7574"/>
			<stop stop-color="#75AA64" offset="0.89"/>
		</radialGradient>
		<radialGradient id="rg1" gradientUnits="userSpaceOnUse" cy="422.82" cx="-358.5" gradientTransform="matrix(0.51,0,0,0.51,196.2399,-196.03749)" r="1.2859">
			<stop stop-color="#4F7F3E" offset="0.11"/>
			<stop stop-color="#75AA64" offset="0.7574"/>
			<stop stop-color="#75AA64" offset="0.89"/>
		</radialGradient>
		<linearGradient id="lg0" y2="394.18" gradientUnits="userSpaceOnUse" x2="-361.51" gradientTransform="matrix(0.51,0,0,0.51,196.2399,-196.03749)" y1="406" x1="-344.62">
			<stop stop-color="#75AA64" offset="0.31"/>
			<stop stop-color="#75AA64" offset="0.5798"/>
			<stop stop-color="#4F7F3E" offset="0.69"/>
		</linearGradient>
		<linearGradient id="lg1" y2="405.1" gradientUnits="userSpaceOnUse" x2="-352.51" gradientTransform="matrix(0.51,0,0,0.51,196.2399,-196.03749)" y1="427.22" x1="-348.21">
			<stop stop-color="#75AA64" offset="0.08"/>
			<stop stop-color="#75AA64" offset="0.6764"/>
			<stop stop-color="#4F7F3E" offset="0.92"/>
		</linearGradient>
		<linearGradient id="lg2" y2="401.18" gradientUnits="userSpaceOnUse" x2="-378.63" gradientTransform="matrix(0.51,0,0,0.51,196.2399,-196.03749)" y1="387.67" x1="-324.45">
			<stop stop-color="#548A42" offset="0"/>
			<stop stop-color="#75AA64" offset="0.71"/>
			<stop stop-color="#4F7F3E" offset="1"/>
		</linearGradient>
		<radialGradient id="rg2" gradientUnits="userSpaceOnUse" cy="406.42" cx="-358.91" gradientTransform="matrix(0.51,0,0,0.51,199.9122,-196.03749)" r="20.577">
			<stop stop-color="#FABA25" offset="0.12"/>
			<stop stop-color="#CF9E46" offset="0.7736"/>
			<stop stop-color="#CF9E46" offset="0.88"/>
		</radialGradient>
	</defs>
	<path d="m22.006,1.2332,0.001,0.001,0.004,0.003c0.512,0.265,0.997,0.563,1.45,0.894,0.452,0.329,0.884,0.697,1.29,1.099,2.07,2.046,3.357,4.892,3.357,8.027v0.002c0,1.983-0.516,3.853-1.419,5.476-0.152,0.273-0.309,0.531-0.47,0.773v-0.001c-0.858,1.288-1.974,2.389-3.271,3.228l-0.014,0.01-0.001,0.001c-0.466,0.301-0.956,0.563-1.461,0.789s-1.024,0.412-1.553,0.56c-2.714,0.757-5.694,0.495-8.228-0.813l-0.002-0.001-0.004-0.003c-0.512-0.265-0.997-0.563-1.449-0.894-0.452-0.329-0.884-0.697-1.291-1.099-2.069-2.046-3.357-4.891-3.357-8.028v-0.002c0-1.532,0.308-2.995,0.865-4.331,0.182-0.437,0.389-0.857,0.62-1.261,1.191-2.082,3.025-3.749,5.227-4.721l0.025-0.011h0.001c0.427-0.188,0.869-0.348,1.32-0.479,0.45-0.131,0.908-0.233,1.369-0.308,2.365-0.378,4.858-0.012,6.991,1.089z"/>
	<path fill="url(#rg2)" d="m21.667,1.9182,0,0-0.002-0.001-0.004-0.003c-1.99-1.028-4.316-1.37-6.528-1.017-0.431,0.069-0.858,0.165-1.276,0.287-0.416,0.121-0.826,0.271-1.227,0.445v0.001l-0.024,0.011c-2.05,0.906-3.76,2.459-4.871,4.401-0.217,0.38-0.411,0.771-0.578,1.174-0.517,1.244-0.804,2.608-0.804,4.039v0.002c0,2.927,1.199,5.579,3.127,7.484,0.371,0.366,0.774,0.709,1.207,1.023,0.43,0.313,0.879,0.592,1.343,0.832l0.002,0.001,0.004,0.003c2.362,1.221,5.144,1.464,7.679,0.758,0.493-0.138,0.977-0.312,1.445-0.521,0.467-0.208,0.922-0.453,1.36-0.735v0.001l0.012-0.009c1.21-0.782,2.25-1.809,3.05-3.01v-0.002c0.162-0.242,0.309-0.482,0.44-0.719,0.841-1.511,1.321-3.253,1.321-5.105v-0.002c0-2.926-1.199-5.578-3.127-7.483-0.371-0.366-0.774-0.709-1.207-1.023-0.428-0.313-0.877-0.592-1.342-0.832z"/>
	<path d="m6.145,3.9952-3.97,0.378c-0.18,0.022-0.308,0.035-0.414,0.047h-0.002c-0.479,0.053-0.817,0.091-1.018,0.14v-0.001l-0.005,0.001-0.005,0.002c-0.941,0.232-0.988,0.491-0.057,0.902,0.207,0.092,0.611,0.215,1.24,0.398,0.578,0.169,1.145,0.323,1.698,0.452,0.559,0.129,1.117,0.236,1.678,0.309,3.078,0.397,6.011,0.195,9.256-0.027,1.582-0.109,3.022-0.109,4.604,0,3.245,0.223,6.178,0.425,9.256,0.027,0.562-0.073,1.12-0.18,1.679-0.309,0.552-0.129,1.119-0.283,1.698-0.452,0.628-0.184,1.033-0.307,1.24-0.398,0.93-0.411,0.883-0.67-0.058-0.902-0.198-0.05-0.54-0.088-1.027-0.142-0.099-0.011-0.183-0.021-0.403-0.045l-0.014-0.002c-0.732-0.083-1.389-0.142-2.074-0.202-0.684-0.061-1.395-0.124-1.874-0.174v0.001c-0.005-0.001-0.009-0.001-0.013-0.001v-0.001c-2.411-0.251-5.06-0.575-7.66-0.946-0.469-0.066-0.972-0.141-1.504-0.222-3.191-0.481-6.082,0.453-9.34,0.841-0.529,0.063-1.021,0.12-1.475,0.171-0.514,0.057-0.994,0.109-1.436,0.155z"/>
	<path fill="url(#lg2)" d="m2.273,5.1312c0.558-0.063,1.284-0.128,2.042-0.195,0.534-0.047,1.089-0.097,1.898-0.181,0.018-0.001-0.022,0.002,0.007,0h0.001c0.5-0.053,0.982-0.104,1.442-0.156,0.52-0.058,1.015-0.114,1.482-0.17,2.978-0.354,6.177-1.291,9.136-0.844,0.465,0.069,0.969,0.144,1.511,0.222,2.595,0.37,5.256,0.695,7.69,0.948h0.003c0.002,0.001-0.002,0,0.001,0l0.009,0.002c0.81,0.084,1.357,0.133,1.885,0.18,0.758,0.066,1.484,0.131,2.053,0.196l0.014,0.001c0.019,0.002,0.046,0.006,0.079,0.009-0.54,0.157-1.075,0.303-1.612,0.428-0.545,0.126-1.081,0.229-1.604,0.297-2.982,0.385-5.891,0.185-9.109-0.037-1.684-0.116-3.022-0.116-4.706,0-3.218,0.222-6.127,0.422-9.109,0.037-0.523-0.069-1.059-0.172-1.604-0.298-0.537-0.125-1.073-0.27-1.612-0.427,0.032-0.003,0.062-0.007,0.091-0.01h0.001l0.011-0.002z"/>
	<path d="m17.021,11.489c-0.055,0.001-0.113,0.001-0.171,0.001h-0.003c-1.446-0.007-2.827-0.102-4.074-0.266-0.25-0.033-0.494-0.068-0.729-0.106-0.249-0.039-0.48-0.08-0.694-0.121-0.086-0.017-0.118-0.023-0.131-0.026-0.261-0.052-0.525-0.11-0.789-0.175-0.095-0.022-0.146-0.035-0.146-0.035-0.032-0.008-0.079-0.021-0.146-0.038l-0.003-0.001h-0.001c-0.294-0.078-0.413-0.271-0.368-0.59,0.02-0.139,0.09-0.313,0.207-0.528l-0.002-0.001c0.102-0.187,0.241-0.411,0.417-0.679,0.143-0.218,0.361-0.537,0.629-0.926,0.3-0.436,0.585-0.925,0.874-1.421,1.136-1.948,2.323-3.985,4.957-3.985s3.822,2.037,4.957,3.985c0.289,0.495,0.574,0.984,0.873,1.419l0.001,0.002c0.269,0.389,0.488,0.709,0.629,0.926,0.17,0.258,0.308,0.481,0.415,0.679,0.117,0.216,0.187,0.39,0.207,0.529,0.046,0.319-0.074,0.512-0.368,0.59-0.25,0.066-0.506,0.128-0.763,0.184h-0.001c-0.019,0.004-0.055,0.011-0.155,0.032-0.122,0.025-0.146,0.03-0.159,0.032l-0.004,0.001c-1.112,0.222-2.39,0.382-3.765,0.462-0.264,0.016-0.542,0.028-0.836,0.039-0.277,0.008-0.564,0.014-0.858,0.017z"/>
	<path d="m16.792,22.458-0.006-0.001-0.001-0.002c-0.498-0.077-0.977-0.229-1.431-0.446-0.453-0.218-0.886-0.503-1.294-0.846-2.042-1.722-3.423-4.943-3.423-8.61v-0.012c0-0.356,0.013-0.698,0.037-1.027,0.005-0.076,0.009-0.132,0.013-0.165,0.021-0.26,0.054-0.538,0.096-0.833l0.058-0.401,0.396,0.081c0.02,0.005,0.019,0.004,0.125,0.025,0.228,0.045,0.456,0.087,0.684,0.125,0.237,0.039,0.478,0.075,0.721,0.108,1.231,0.167,2.615,0.264,4.081,0.271h0.003c0.054,0,0.109,0,0.165-0.001,0.286-0.003,0.574-0.01,0.864-0.02,0.271-0.01,0.551-0.022,0.839-0.04,1.387-0.082,2.658-0.246,3.743-0.47l0.393-0.08,0.061,0.397c0,0.001,0.001,0.002,0.003,0.019v0.004c0.014,0.097,0.026,0.187,0.036,0.27,0.008,0.064,0.019,0.158,0.031,0.279,0.05,0.486,0.076,0.977,0.076,1.469v0.009c0,0.707-0.052,1.401-0.151,2.071-0.099,0.671-0.244,1.315-0.429,1.926-0.971,3.194-3.073,5.515-5.575,5.899h-0.115v0.001z"/>
	<path fill="url(#lg1)" d="m15.682,21.318c0.376,0.18,0.766,0.307,1.163,0.374,2.177-0.363,4.023-2.463,4.903-5.355,0.176-0.577,0.313-1.186,0.405-1.814,0.093-0.631,0.142-1.287,0.142-1.961v-0.009c0-0.479-0.023-0.943-0.069-1.391-0.004-0.036-0.009-0.083-0.015-0.14-1.039,0.193-2.205,0.334-3.448,0.408-0.269,0.016-0.557,0.029-0.86,0.04-0.285,0.01-0.579,0.016-0.881,0.019-0.055,0.001-0.113,0.001-0.171,0.001h-0.003c-1.49-0.007-2.908-0.107-4.182-0.28-0.257-0.034-0.505-0.072-0.744-0.111h-0.002c-0.149-0.024-0.292-0.05-0.432-0.075-0.014,0.124-0.026,0.253-0.038,0.388-0.006,0.072-0.01,0.125-0.013,0.156-0.024,0.329-0.036,0.654-0.036,0.974v0.012c0,3.44,1.271,6.442,3.151,8.027,0.355,0.299,0.734,0.547,1.13,0.737z"/>
	<path fill="url(#lg0)" d="m16.847,10.726h0.003c0.054,0,0.109,0,0.165-0.001,0.278-0.003,0.558-0.009,0.84-0.019,0.265-0.009,0.539-0.021,0.818-0.038,1.345-0.078,2.585-0.233,3.658-0.447h0.004c0.117-0.023,0.134-0.026,0.153-0.03,0.002-0.001,0.069-0.016,0.15-0.032,0.161-0.035,0.315-0.07,0.461-0.105-0.014-0.026-0.028-0.055-0.045-0.085-0.082-0.15-0.212-0.359-0.385-0.622-0.201-0.305-0.399-0.597-0.618-0.914v-0.001l-0.001-0.001c-0.318-0.463-0.61-0.964-0.905-1.47-1.026-1.762-2.1-3.604-4.297-3.604-2.196,0-3.27,1.842-4.296,3.604-0.296,0.507-0.588,1.008-0.907,1.472-0.219,0.317-0.418,0.61-0.618,0.914-0.167,0.253-0.296,0.461-0.383,0.621h-0.001c-0.016,0.03-0.031,0.059-0.044,0.085,0.007,0.002,0.01,0.003,0.01,0.003,0.229,0.056,0.482,0.111,0.756,0.165,0.073,0.015,0.128,0.025,0.128,0.025,0.228,0.044,0.452,0.084,0.67,0.119,0.232,0.037,0.468,0.071,0.708,0.104,1.203,0.158,2.55,0.25,3.976,0.257z"/>
	<path d="m20.309,18.453,0,0h0.003c0.319,0,0.61,0.132,0.821,0.342,0.211,0.212,0.343,0.503,0.343,0.823v0.003c-0.001,0.319-0.132,0.61-0.342,0.82-0.211,0.212-0.503,0.343-0.823,0.343h-0.003c-0.319,0-0.609-0.131-0.82-0.341-0.211-0.212-0.343-0.503-0.343-0.823v-0.004c0.001-0.319,0.131-0.609,0.342-0.82,0.21-0.211,0.501-0.343,0.822-0.343zm-6.922,0c0.321,0,0.612,0.132,0.824,0.343,0.21,0.211,0.341,0.501,0.341,0.82v0.004c0,0.32-0.132,0.611-0.343,0.823-0.21,0.21-0.501,0.341-0.82,0.341h-0.003c-0.32,0-0.611-0.131-0.823-0.343-0.21-0.21-0.341-0.501-0.342-0.82v-0.003c0-0.32,0.131-0.611,0.343-0.823,0.21-0.21,0.501-0.342,0.82-0.342h0.003z"/>
	<path fill="url(#rg1)" d="m13.388,18.963,0,0h-0.003c-0.18,0.001-0.343,0.074-0.462,0.192-0.118,0.118-0.191,0.282-0.191,0.463v0.003c0,0.18,0.074,0.343,0.192,0.462,0.118,0.118,0.282,0.191,0.463,0.191h0.003c0.18,0,0.343-0.073,0.462-0.191,0.118-0.119,0.192-0.282,0.192-0.463v-0.004c0-0.179-0.074-0.343-0.192-0.461s-0.284-0.192-0.464-0.192z"/>
	<path fill="url(#rg0)" d="m20.31,18.963,0,0c-0.182,0-0.346,0.074-0.464,0.192s-0.192,0.282-0.192,0.461v0.004c0,0.181,0.074,0.345,0.192,0.463s0.282,0.191,0.461,0.191h0.003c0.181,0,0.344-0.073,0.462-0.191,0.118-0.119,0.192-0.282,0.192-0.462v-0.003c0-0.181-0.074-0.345-0.192-0.463-0.119-0.118-0.282-0.191-0.462-0.192z"/>
</svg>
