<?xml version="1.0" encoding="UTF-8" standalone="no"?>
<svg xmlns="http://www.w3.org/2000/svg" height="1052.4" width="744.09" version="1.1" xmlns:xlink="http://www.w3.org/1999/xlink">
	<defs>
		<linearGradient id="lg0">
			<stop stop-color="#e1a56e" offset="0"/>
			<stop stop-color="#a66a33" offset="1"/>
		</linearGradient>
		<linearGradient id="lg1">
			<stop stop-color="#625e5c" offset="0"/>
			<stop stop-color="#a6a8a5" offset="1"/>
		</linearGradient>
		<linearGradient id="lg2" x1="4.7429" xlink:href="#lg1" gradientUnits="userSpaceOnUse" y1="6.0564" gradientTransform="matrix(129.2186,0,0,129.2186,-0.48753988,37.051475)" x2="4.7429" y2="5.008"/>
		<linearGradient id="lg3" x1="5.3147" xlink:href="#lg1" gradientUnits="userSpaceOnUse" y1="7.4952" gradientTransform="matrix(129.2186,0,0,129.2186,-0.48753988,37.051475)" x2="5.3147" y2="6.3151"/>
		<linearGradient id="lg4" x1="0.91182" xlink:href="#lg1" gradientUnits="userSpaceOnUse" y1="6.11" gradientTransform="matrix(129.2186,0,0,129.2186,-0.48753988,37.051475)" x2="0.91182" y2="5.008"/>
		<linearGradient id="lg5" x1="0.56385" xlink:href="#lg1" gradientUnits="userSpaceOnUse" y1="7.4319" gradientTransform="matrix(129.2186,0,0,129.2186,-0.48753988,37.051475)" x2="0.56385" y2="6.2409"/>
		<radialGradient id="lg6" xlink:href="#lg0" gradientUnits="userSpaceOnUse" cy="1.5863" cx="1.5118" gradientTransform="matrix(129.21858,143.315,-26.438112,23.837666,49.247048,25.651548)" r="0.77457"/>
		<radialGradient id="lg7" xlink:href="#lg0" gradientUnits="userSpaceOnUse" cy="1.2457" cx="3.3884" gradientTransform="matrix(62.725678,18.788138,-99.132604,330.96199,329.02276,-269.31432)" r="0.46976"/>
		<linearGradient id="lg8" x1="0.86579" xlink:href="#lg0" gradientUnits="userSpaceOnUse" y1="5.5389" gradientTransform="matrix(129.2186,0,0,129.2186,-0.48753988,37.051475)" x2="2.0257" y2="5.5389"/>
		<linearGradient id="lg9" x1="0.45398" xlink:href="#lg0" gradientUnits="userSpaceOnUse" y1="6.7778" gradientTransform="matrix(129.2186,0,0,129.2186,-0.48753988,37.051475)" x2="2.1632" y2="6.7778"/>
		<linearGradient id="lg10" x1="5.3442" xlink:href="#lg0" gradientUnits="userSpaceOnUse" y1="6.8568" gradientTransform="matrix(129.2186,0,0,129.2186,-0.48753988,37.051475)" x2="3.4427" y2="6.8568"/>
		<linearGradient id="lg11" x1="4.8165" xlink:href="#lg0" gradientUnits="userSpaceOnUse" y1="5.4752" gradientTransform="matrix(129.2186,0,0,129.2186,-0.48753988,37.051475)" x2="3.6824" y2="5.4752"/>
		<radialGradient id="lg12" gradientUnits="userSpaceOnUse" cy="5.7654" cx="3.7747" gradientTransform="matrix(88.027377,-33.693168,55.35872,144.63119,-170.95896,68.147833)" r="0.34648">
			<stop stop-color="#ec7b74" offset="0"/>
			<stop stop-color="#d63a45" offset="1"/>
		</radialGradient>
		<radialGradient id="lg13" xlink:href="#lg0" gradientUnits="userSpaceOnUse" cy="6.1444" cx="3.1515" gradientTransform="matrix(129.2186,0,0,91.717835,-0.48753988,275.7267)" r="1.1825"/>
		<linearGradient id="lg14" x1="2.7848" gradientUnits="userSpaceOnUse" y1="5.5653" gradientTransform="matrix(129.2186,0,0,129.2186,-0.48753988,37.051475)" x2="2.7848" y2="2.9391">
			<stop stop-color="#b0b2af" offset="0"/>
			<stop stop-color="#d4d6d3" offset="1"/>
		</linearGradient>
		<radialGradient id="lg15" xlink:href="#lg0" gradientUnits="userSpaceOnUse" cy="3.8942" cx="2.7848" gradientTransform="matrix(72.282596,-18.06516,44.695472,178.83623,-15.984792,-105.86065)" r="1.2807"/>
		<linearGradient id="lg16" y2="4.6131" xlink:href="#lg1" gradientUnits="userSpaceOnUse" x2="2.7751" gradientTransform="matrix(135.72279,0,0,135.72279,-12.256548,0.83204366)" y1="5.5686" x1="2.7751"/>
	</defs>
	<path d="m115.74,834.53,102.88-26.58-6.8615,26.697-96.022-0.11629zm-54.724-41.93c1.7057,11.332,15.545,41.466,25.882,41.893l-67.168-0.0905c-11.358,9.72-18.155,27.58-18.956,36.44-1.7186,18.853-1.5119,28.183,10.531,36.569-14.098,13.4-12.599,68.589,18.646,99.834l246.37-46.34c52.243,24.358,131.45,28.687,179.68,9.6397l257.34,44.335c12.198-11.849,44.632-50.602,22.859-98.18,11.242-16.088,12.392-53.781-9.252-76.678l-183.74-1.0467-9.1874-33.222,95.958,23.324c12.25-9.6526,55.125-57.502,20.804-95.984,21.683-21.89,24.694-27.511,2.804-61.599l-119.24-2.17c7.73-25.09,5.07-53.36-13.28-82.43-39.3-61.51-78.38-125.33-80.59-207.57l21.011,0.0388-18.84-22.148,38.326,0.0646-32.977-16.876,30.547-21.89-46.079-0.24552c29.79-79.43,33.94-157.82,43.39-242.93,7.52-67.775-42.03-32.757-70.49,15.649-28.48,48.408-79.5,107.83-83.93,197.62l-47.061-44.4,8.0116,54.685c-41.26-52.45-91.448-91.099-171.67-136.14-65.708-36.892-15.623,78.772,4.9491,110.13,14.615,22.29,47.552,64.028,77.286,96.785l-14.033,25.999,10.428-1.2664-4.5743,13.749,21.799,3.9799c0,45.265,13.943,82.286,9.9498,128.28-4.8586,55.926-39.799,95.105-32.731,142.62l-109.41-0.64c-21.825,23.479-21.67,62.49-1.99,66.832-13.49,9.756-14.447,23.091-11.384,43.469z" fill="#858683"/>
	<path d="m430.85,387.49c-9.1991-92.585-212.6-87.628-212.6,42.929,0,41.782,12.884,74.072,9.1991,116.52-6.1327,70.644-69.097,106.86-5.1106,182.96,32.315,38.431,131.97,24.818,173.76,22.487,80.138-4.471,165.16-79.995,112.43-162.52-36.276-56.776-75.637-126.48-77.681-202.38z" stroke-width="4.55753994" fill="none"/>
	<path d="m375.66,514.23c10.75,8.5943,62.482,19.11,62.608-1.026,0.12276-19.829-0.5608-36.668-3.0664-47.816-2.5055-11.148-7.6071-32.271-17.889-41.367-6.4609-5.7154-23.39-8.9975-32.958-6.1288-9.5686,2.8686-25.031,47.114-25.048,61.586-0.0232,18.907,5.6042,26.158,16.354,34.752z" stroke-width="4.55753994" fill="none"/>
	<path d="m276.12,552.01c26.05-12.702,47.372-26.784,42.364-65.333-1.9499-15.02-21.082-40.43-33.177-48.489-30.547-20.356-51.041,15.001-48.489,44.406,1.8956,21.853,13.251,82.118,39.302,69.416z" stroke-width="4.55753994" fill="none"/>
	<path d="m289.79,755.5c9.4562,2.7924,14.847,10.255,28.624,14.257,34.989,10.16,67.934,6.0642,94.625-3.0237" stroke-width="4.55753994" fill="none"/>
	<path d="m411.48,750.67c-0.17445,19.728,7.2039,35.649,16.298,52.817,15.411,29.095,68.251,30.339,72.57-7.1548,3.0095-26.12-3.8649-49.814-24.983-71.627m23.758,42.245c12.725,22.102,69.753,113.18-17.173,177.59-56.718,42.03-228.74,27.009-249.4-41.907-22.982-76.663,2.8363-95.328,28.706-151.62" stroke-width="4.55753994" fill="none"/>
	<path d="M288.62,332.89c-38.14-59.13-101.61-113.27-179.23-158.52-52.874-30.826,9.0065,83.168,25.558,109.36,16.552,26.196,64.073,79.573,90.431,107.41" stroke-width="4.55753994" fill="none"/>
	<path d="m344.31,324.45c-2.6942-93.837-1.8052-87.854,20.441-132.09,22.246-44.238,42.523-79.382,64.277-111.49,16.965-25.04,41.722-55.267,34.236,7.4339-9.9434,83.289-22.96,189.74-60.837,253.61" stroke-width="4.55753994" fill="none"/>
	<polyline transform="matrix(129.2186,0,0,129.2186,-0.48975697,37.051483)" points="3.1712,2.2622,3.3842,2.2596,3.2817,2.3648,3.4552,2.3806,3.2606,2.4306,3.3474,2.4832,3.2535,2.4879" stroke-width="0.03527" class="fil1 str1" fill="none"/>
	<polyline transform="matrix(129.2186,0,0,129.2186,-0.48975697,37.051483)" points="2.5578,2.2247,2.5525,2.0196,2.484,2.1198,2.3375,1.9677,2.348,2.136,2.2192,2.1255,2.3347,2.2591" stroke-width="0.03527" class="fil1 str1" fill="none"/>
	<polyline transform="matrix(129.2186,0,0,129.2186,-0.48975697,37.051483)" points="1.6043,2.5852,1.5169,2.6988,1.6406,2.6778,1.5538,2.7883,1.7308,2.7885" stroke-width="0.03527" class="fil1 str1" fill="none"/>
	<path d="m300.07,756.2c-0.0491-34.256,4.9607-68.248-8.8592-95.891-13.855-27.712-29.184-51.693-48.693-77.721" stroke-width="4.55753994" fill="none"/>
	<path d="m457.47,735.42c-14.626-26.131-23.938-62.577-23.938-96.22,0-26.087,9.4459-71.911,21.33-98.547" stroke-width="4.55753994" fill="none"/>
	<path d="m300.85,707.57c1.2159-39.653-67.524-45.17-67.524-97.653,0-62.674,119.57-73.546,172.29-73.546,39.161,0,72.184-1.7806,72.184,44.264,0,21.859-32.844,53.918-42.61,83.887" stroke-width="4.55753994" fill="none"/>
	<path d="m513.77,683.39,133.6,1.4317c19.005,29.317,4.8754,33.939-13.953,52.768,39.165,26.246,16.478,58.977-8.5194,82.067l-112.37-27.92" stroke-width="4.55753994" fill="none"/>
	<path d="m529.19,853.72,192.08-0.6448c21.643,19.839,2.198,50.932-17.672,57.434,5.1804,2.6206,26.336,9.557,29.921,24.466,3.5845,14.909,7.7428,43.521-20.096,70.586l-269.06-44.56" stroke-width="4.55753994" fill="none"/>
	<path d="M199.78,694.1,82.019,693.35c-19.959,19.959-5.5435,46.811,12.445,50.504-12.324,8.2945-20.007,25.961-17.203,43.293,1.57,9.6992,15.668,39.422,25.149,39.422l137.67-33.97" stroke-width="4.55753994" fill="none"/>
	<path d="m223.9,843.5-196.91-0.008c-6.5462,7.4378-12.159,16.597-12.939,25.196-1.6579,18.268,14.833,28.292,26.507,36.411-27.29,9.2172-32.943,62.024-2.6722,92.294l241.15-49.9" stroke-width="4.55753994" fill="none"/>
	<path d="m146.49,693.76c-3.4476,19.256-20.429,22.291-35.1,25.134,24.287,9.1151,6.3537,18.636,0.35923,23.188,20.13,0,29.539,6.492,11.037,19.521,14.629,0.29978,36.26,3.1103,39.516,50.188" stroke-width="0.98464561" fill="none"/>
	<path d="m96.964,843.49c0,21.293-24.006,24.418-38.791,29.059,14,6.1792,24.541,14.578,4.0833,24.5-2.0184,0.97819,37.623,4.0536,10.777,24.161,19.882,1.0854,47.555,29.985,38.107,61.022" stroke-width="0.98464561" fill="none"/>
	<path d="m650.25,853.32c0,18.757,22.907,21.719,36.892,27.195-27.089,10.985-0.60086,24.278,2.9346,27.327-16.006,0-38.325,1.4085-13.795,17.286-33.57,13.275-38.432,31.078-39.838,67.702" stroke-width="0.98464561" fill="none"/>
	<path d="m568.71,805.7c-2.6697-29.921,10.956-53.264,37.305-54.18-19.856-23.047,1.9538-17.815,13.188-17.815-4.0588-4.1104-28.46-20.513,2.6864-23.038-14.687-3.6711-34.583-11.937-34.994-26.489" stroke-width="0.98464561" fill="none"/>
	<path fill="url(#lg15)" d="m508.53,589.87c-36.276-56.776-75.637-126.48-77.681-202.38-1.0984-11.057-4.9672-20.724-10.929-28.951-4.6596-6.4312-10.598-11.982-17.492-16.632-15.695-10.584-36.339-16.493-58.117-17.457-4.7216-0.20934-9.4976-0.18609-14.288,0.0724-9.6552,0.52203-19.367,1.999-28.821,4.4542-4.2565,1.1061-8.4612,2.4099-12.583,3.9153-27.747,10.127-51.784,29.336-63.237,58.253-0.80374,2.0313-1.5468,4.1117-2.2238,6.2387-3.1672,9.9511-4.909,20.957-4.909,33.036,0,41.782,12.884,74.072,9.1991,116.52-5.0873,58.604-49.288,93.519-27.672,147.16z"/>
	<path fill="url(#lg14)" d="m359.3,479.48c0.0168-14.471,15.479-58.717,25.048-61.586,9.5686-2.8687,26.498,0.41349,32.958,6.1288,10.282,9.0957,15.383,30.219,17.889,41.367,2.5056,11.148,3.1891,27.987,3.0664,47.816-0.12533,20.136-51.858,9.6203-62.608,1.026s-16.377-15.845-16.354-34.752zm116.07,245.23c16.115-11.198,29.595-25.276,38.395-41.318,14.845-27.06,16.372-59.704-5.2346-93.523-52.367-105.64-277.63-41.25-298.24,14.614-2.027,14.195-26.014,45.006-10.51,89.619,3.8999,11.222,11.657,22.829,22.562,35.797,8.814,10.481,22.635,17.092,38.927,21.116,66.509,9.8644,156.72,11.325,214.1-26.305zm-190.07-286.52c12.095,8.0594,31.227,33.469,33.177,48.489,5.0072,38.548-16.314,52.631-42.364,65.333s-37.406-47.563-39.302-69.416c-2.5521-29.405,17.942-64.762,48.489-44.406z"/>
	<path fill="#FFF" d="m318.48,486.68c-1.9499-15.02-21.082-40.43-33.177-48.489-30.547-20.356-51.041,15.001-48.489,44.406,1.8956,21.853,13.251,82.118,39.302,69.416,26.05-12.702,47.372-26.784,42.364-65.333z"/>
	<circle stroke-width="0.03527" transform="matrix(129.2186,0,0,129.2186,-0.48975697,37.051483)" cy="3.6178" cx="2.2591" r="0.1264" fill="#000"/>
	<path fill="#FFF" d="m384.35,417.89c-9.5686,2.8686-25.031,47.114-25.048,61.586-0.0232,18.907,5.6042,26.158,16.354,34.752,10.75,8.5943,62.482,19.11,62.608-1.026,0.12276-19.829-0.5608-36.668-3.0664-47.816-2.5055-11.148-7.6071-32.271-17.889-41.367-9.1774-5.0615-23.786-8.5917-32.959-6.129z"/>
	<circle cx="2.9622" cy="3.5033" transform="matrix(129.2186,0,0,129.2186,-0.48975697,37.051483)" r="0.1264" stroke-width="0.03527" fill="#000"/>
	<g transform="matrix(0.95207738,0,0,0.95207738,11.181642,36.259305)">
		<path fill="url(#lg16)" d="m405.62,536.37c-43.887,0-134.1,7.5347-163.1,46.218,19.509,26.028,34.839,50.009,48.693,77.721,6.585,13.173,8.8954,27.786,9.5144,43.184,0.12535,1.3193,0.16928,2.6761,0.12664,4.0768,0.34372,15.696-0.80504,32.133-0.78177,48.63,60.203,2.9091,113.06,1.1481,158.87-17.351-11.003-19.657-20.468-48.58-23.754-74.327-1.0829-8.4806-1.654-16.987-1.654-25.323,0-26.087,9.4459-71.911,21.33-98.547-17.12-4.65-34.68-4.29-49.25-4.28z"/>
		<path fill="#5b5857" d="m291.21,660.31c-13.855-27.712-29.184-51.693-48.693-77.721-5.8342,7.7841-9.19,16.829-9.19,27.328,0,50.63,63.971,57.551,67.398,93.576-0.61895-15.398-2.9294-30.011-9.5144-43.184z"/>
		<path fill="#5b5857" d="m454.87,540.65c-11.884,26.636-21.33,72.461-21.33,98.547,0,8.3359,0.57114,16.842,1.654,25.323,9.7663-29.97,42.61-62.029,42.61-83.887,0-23.902-8.898-34.916-22.934-39.983z"/>
	</g>
	<path d="m396.1,752.38c-22.038,1.2289-60.168,5.5964-96.027,3.8132-3.4527-0.17186-6.8835-0.40058-10.278-0.6939,9.4562,2.7924,14.847,10.255,28.624,14.257,34.989,10.16,67.934,6.0642,94.625-3.0237-1.0428-5.1235-1.6062-10.438-1.5571-16.063-5.1248,0.84896-10.266,1.4253-15.387,1.7108z" stroke-width="0.98464561" fill="#a66a33"/>
	<path d="m413.04,766.74c-26.691,9.0879-59.637,13.184-94.625,3.0237-13.777-4.0019-19.168-11.464-28.624-14.257-9.9705-0.86318-19.618-2.2898-28.528-4.4904-7.4559,16.226-14.908,29.325-21.189,41.588-8.5039,16.605-14.859,31.677-16.17,50.898-1.079,15.836,1.2651,34.488,8.6538,59.137,5.7334,19.127,23.128,34.103,46.48,44.86,46.489,21.414,116.59,26.107,165.33,13.546,14.987-3.8624,27.954-9.3567,37.591-16.499,37.604-27.865,48.268-60.717,47.235-90.819-0.81149-23.597-8.8114-45.503-16.659-61.987-5.2837-11.097-10.498-19.737-13.403-24.783,2.0714,9.4485,2.3944,19.232,1.225,29.382-4.3198,37.494-57.16,36.25-72.57,7.1548-6.501-12.273-12.126-23.909-14.741-36.754z" stroke-width="0.98464561" fill="url(#lg13)"/>
	<path d="m413.04,766.74c2.6154,12.844,8.2403,24.48,14.741,36.754,15.411,29.095,68.251,30.339,72.57-7.1548,1.1694-10.15,0.84638-19.933-1.225-29.382-3.2589-14.868-10.845-28.909-23.758-42.245-5.6688,3.9399-11.665,7.5218-17.897,10.708-14.427,7.3758-30.125,12.627-45.989,15.257-0.0491,5.6249,0.51429,10.94,1.5571,16.063z" stroke-width="0.98464561" fill="url(#lg12)"/>
	<path d="m475.37,724.71c12.913,13.337,20.499,27.378,23.758,42.245,2.9048,5.046,8.1188,13.686,13.403,24.783l56.18,13.959c-2.6697-29.921,10.956-53.264,37.305-54.18-19.856-23.047,1.9538-17.815,13.188-17.815-4.0588-4.1104-28.46-20.513,2.6864-23.038-14.687-3.6711-34.583-11.937-34.994-26.489l-73.133-0.78306c-8.7998,16.041-22.28,30.12-38.395,41.318z" stroke-width="0.98464561" fill="url(#lg11)"/>
	<path d="m650.25,853.32-121.06,0.40703c1.0338,30.101-9.6307,62.954-47.235,90.819-9.6371,7.1419-22.604,12.636-37.591,16.499l192.08,31.785c1.4059-36.623,6.2684-54.427,39.838-67.702-24.53-15.877-2.2109-17.286,13.795-17.286-3.5354-3.0496-30.024-16.342-2.9346-27.327-13.985-5.4763-36.892-8.438-36.892-27.195z" stroke-width="0.98464561" fill="url(#lg10)"/>
	<path d="m279.04,947.49c-23.352-10.756-40.747-25.733-46.48-44.86-7.3887-24.648-9.7328-43.301-8.6538-59.137l-126.94-0.006c0,21.293-24.006,24.418-38.791,29.059,14,6.1792,24.541,14.578,4.0833,24.5-2.0184,0.97819,37.623,4.0536,10.777,24.161,19.882,1.0854,47.555,29.985,38.107,61.022l167.9-34.74z" stroke-width="0.98464561" fill="url(#lg9)"/>
	<path d="m162.3,811.79,77.777-19.192c6.2813-12.263,13.733-25.362,21.189-41.588-16.292-4.0239-30.113-10.635-38.927-21.116-10.905-12.968-18.122-24.778-22.562-35.797l-53.29-0.33985c-3.4476,19.256-20.429,22.291-35.1,25.134,24.287,9.1151,6.3537,18.636,0.35923,23.188,20.13,0,29.539,6.492,11.037,19.521,14.629,0.29978,36.26,3.1103,39.516,50.188z" stroke-width="0.98464561" fill="url(#lg8)"/>
	<path d="m344.31,324.45c21.778,0.96396,42.422,6.8731,58.117,17.457,2.3802-4.0135,4.6635-8.1963,6.8538-12.53,32.648-64.622,44.666-163.02,53.984-241.08,7.4856-62.701-17.271-32.474-34.236-7.4339-21.754,32.108-42.031,67.252-64.277,111.49s-23.135,38.255-20.441,132.09z" stroke-width="0.98464561" fill="url(#lg7)"/>
	<path d="M288.62,332.89c-38.14-59.13-101.61-113.27-179.23-158.52-52.874-30.826,9.0065,83.168,25.558,109.36,13.136,20.79,45.778,58.7,71.868,87.375,6.784,7.4559,13.125,14.288,18.564,20.031,11.453-28.917,35.49-48.126,63.237-58.253z" stroke-width="0.98464561" fill="url(#lg6)"/>
	<path d="m73.033,921.21c26.846-20.108-12.795-23.183-10.777-24.161,20.458-9.9214,9.9162-18.321-4.0833-24.5,14.785-4.6402,38.791-7.766,38.791-29.059l-69.974-0.002c-6.5462,7.4378-12.159,16.597-12.939,25.196-1.6579,18.268,14.833,28.292,26.507,36.411-27.29,9.2172-32.943,62.024-2.6722,92.294l73.254-15.15c9.45-31.04-18.225-59.94-38.107-61.03z" stroke-width="0.98464561" fill="url(#lg5)"/>
	<path d="m102.41,826.57,59.889-14.779c-3.2563-47.078-24.888-49.889-39.516-50.188,18.503-13.029,9.0931-19.521-11.037-19.521,5.9944-4.5524,23.927-14.073-0.35923-23.188,14.67-2.8428,31.652-5.8782,35.1-25.134l-64.467-0.40833c-19.959,19.959-5.5435,46.811,12.445,50.504-12.324,8.2945-20.007,25.961-17.203,43.293,1.57,9.6992,15.668,39.422,25.149,39.422z" stroke-width="0.98464561" fill="url(#lg4)"/>
	<path d="m676.28,925.12c-33.57,13.275-38.432,31.078-39.838,67.702l76.974,12.738c27.839-27.065,23.681-55.676,20.096-70.586-3.5845-14.909-24.74-21.846-29.921-24.466,19.87-6.5023,39.315-37.595,17.672-57.434l-71.015,0.23777c0,18.757,22.907,21.719,36.892,27.195-27.089,10.985-0.60086,24.278,2.9346,27.327-16.006,0-38.325,1.4085-13.795,17.286z" stroke-width="0.98464561" fill="url(#lg3)"/>
	<path d="m568.71,805.7,56.18,13.961c24.997-23.09,47.684-55.821,8.5194-82.067,18.828-18.828,32.958-23.451,13.953-52.768l-60.467-0.64868c0.41092,14.551,20.307,22.817,34.994,26.489-31.147,2.5249-6.7452,18.928-2.6864,23.038-11.234,0-33.044-5.232-13.188,17.815-26.349,0.91615-39.975,24.259-37.305,54.18z" stroke-width="0.98464561" fill="url(#lg2)"/>
	<path d="m301.2,328.97c9.4536-2.4552,19.166-3.9321,28.821-4.4542l-0.6771-26.495-8.8528,12.939-18.934-19.648,1.3594,21.75-16.652-1.3594,14.936,17.267z" stroke-width="0.98464561" fill="#a66a33"/>
	<path d="m225.38,391.14c-5.4388-5.7438-11.78-12.576-18.564-20.031l-11.291,14.682,15.973-2.7188-11.215,14.273,22.873,0.0336c0.6771-2.1269,1.4201-4.2074,2.2238-6.2387z" stroke-width="0.98464561" fill="#a66a33"/>
	<path d="m409.28,329.37c-2.1902,4.334-4.4736,8.5168-6.8538,12.53,6.8938,4.6493,12.833,10.201,17.492,16.632l12.139-0.61121-11.215-6.7969,25.149-6.457-22.43-2.0391,13.254-13.594-27.535,0.33598z" stroke-width="0.98464561" fill="#a66a33"/>
</svg>
