<?xml version="1.0" encoding="UTF-8" standalone="no"?>
<svg xmlns:rdf="http://www.w3.org/1999/02/22-rdf-syntax-ns#" xmlns="http://www.w3.org/2000/svg" height="85" width="85" version="1.1" xmlns:cc="http://creativecommons.org/ns#" xmlns:dc="http://purl.org/dc/elements/1.1/">
	<title>eMuleFans.com Logo</title>
	<metadata>
		<rdf:RDF>
			<cc:Work rdf:about="">
				<dc:format>image/svg+xml</dc:format>
				<dc:type rdf:resource="http://purl.org/dc/dcmitype/StillImage"/>
				<dc:title>eMuleFans.com Logo</dc:title>
				<cc:license rdf:resource="http://www.gnu.org/licenses/gpl-2.0.html"/>
				<dc:date>January 2009</dc:date>
				<dc:description>eMuleFans.com Logo</dc:description>
				<dc:source>http://emulefans.com/logo.svg</dc:source>
				<dc:language>en-US</dc:language>
				<dc:subject>
					<rdf:Bag>
						<rdf:li>eMuleFans</rdf:li>
						<rdf:li>Logo</rdf:li>
						<rdf:li>eMule</rdf:li>
					</rdf:Bag>
				</dc:subject>
				<dc:rights>
					<cc:Agent>
						<dc:title>eMuleFans.com</dc:title>
					</cc:Agent>
				</dc:rights>
				<dc:identifier>http://emulefans.com/</dc:identifier>
			</cc:Work>
		</rdf:RDF>
	</metadata>
	<path fill="#000" d="m76.58,72.356c1.8095,4.8637,3.5851,9.7591,7.4911,12.528-7.6344-0.16922-10.961-4.651-13.111-10.303,1.9985-0.61691,3.7847-1.4465,5.6203-2.2254z"/>
	<path fill="#F00" d="m83.954,65.095c0.13968,1.6578-1.7415,3.56-2.8092,4.4514-1.5172,1.2643-3.1477,1.8324-4.4491,2.6924-5.4828-14.111-9.0191-30.165-19.904-38.871,1.6144-2.5218,3.5399-4.7343,3.7471-8.6636,8.921,9.5071,14.962,25.383,22.011,37.931,0.54797,0.9773,1.3556,1.8794,1.4044,2.4605z"/>
	<path fill="#0082d6" d="M41.688,52.685c-0.166-5.443-10.452-5.052-11.006-0.234,3.7959-0.45575,8.511-3.2269,11.005,0.23368zm15.104-19.201c7.77,10.611,9.6526,27.111,14.05,41.096-6.7999,2.204-14.801,4.1375-23.3,4.7978-2.6964,0.21354-6.0738,0.8421-8.1949-0.70018,0.5802-2.2465,5.5204-2.6866,5.3839-5.3866-0.0967-1.9434-4.0874-3.0402-6.3218-2.8092-2.4032,0.24713-5.0042,1.9036-7.3761,2.9252-4.9254,2.1274-10.183,3.7919-14.167,6.4422-3.737,2.04-4.665,4.391-8.8996,5.151-6.8567-0.862-10.072-11.576-3.2775-14.751,2.9346,0.6778,10.654,6.144,5.3857,8.6623-0.76196,0.36665-1.8516,0.56319-1.7567,1.523,8.237-0.67333,13.969-4.6662,19.202-8.3126,0.22698-0.15848,0.80763-0.32009,0.70242-0.70242-1.4505,0.5914-2.8437-0.16788-4.0968,0.23325-1.3005,0.41769-1.5544,1.9904-2.8106,2.3423-3.569-1.6085-4.758-5.5365-7.2583-8.194-1.0234-1.0897-2.456-1.6368-2.9279-3.1656,2.5308-6.6499,8.0543-10.908,9.7179-18.496,0.29055-1.3216,0.34472-2.7882,0.11685-4.3305,12.2-9.266,18.565-24.365,24.588-39.808,4.2347,3.0031,8.601,6.7028,11.474,11.825,2.8983,5.1676,3.8908,13.139,0.35143,18.383-1.254,1.8574-6.204,3.8308-3.3957,6.9069,1.1631-0.9867,1.6811-2.6131,2.8106-3.6307zm-8.082-8.895c-0.623-5.431,1.064-11.096,0.702-16.392-0.074-1.0816-0.166-2.7917-0.936-3.1615-0.685,0.1531-0.126,0.928-0.234,1.5217-1.5991,2.2407-6.4816,2.2653-5.503,6.3236,0.77136-0.19296,1.0288-1.1743,1.639-1.7567,1.0695-1.0221,2.5214-1.634,4.3323-1.8727-0.24265,5.0853-6.2882,12.908,0,15.337zm-16.976,30.44c2.9355,2.978,12.498,3.0461,11.357-2.927-0.55737,0.85061-0.96074,1.4411-1.7558,1.8731-2.7345,1.4832-7.0887-0.97595-9.6011,1.0539z"/>
</svg>
