<?xml version="1.0" encoding="UTF-8" standalone="no"?>
<svg xmlns="http://www.w3.org/2000/svg" height="88.874" width="180.01" xmlns:xlink="http://www.w3.org/1999/xlink">
	<defs>
		<linearGradient id="SVGID_1_" x1="-265.04" gradientUnits="userSpaceOnUse" y1="427.21" gradientTransform="matrix(0.8098,0,0,0.8098,292.94699,-335.96452)" x2="-260.6" y2="490.75">
			<stop stop-color="#C3C6C8" offset="0.42"/>
			<stop stop-color="#FFF" offset="0.58"/>
		</linearGradient>
		<linearGradient id="SVGID_3_" x1="-222.8" gradientUnits="userSpaceOnUse" y1="429.51" gradientTransform="matrix(0.8098,0,0.0107,0.8098,320.27439,-332.16572)" x2="-220.15" y2="467.53">
			<stop stop-color="#C3C6C8" offset="0.42"/>
			<stop stop-color="#FFF" offset="0.58"/>
		</linearGradient>
		<linearGradient id="SVGID_5_" x1="-256.12" gradientUnits="userSpaceOnUse" y1="442.78" gradientTransform="matrix(0.8098,0,0,0.8098,272.03489,-269.36882)" x2="-248.85" y2="411.29">
			<stop stop-color="#42BEEE" offset="0.07"/>
			<stop stop-color="#355FAC" offset="0.93"/>
		</linearGradient>
		<linearGradient id="SVGID_6_" x1="-268.16" gradientUnits="userSpaceOnUse" y1="443.03" gradientTransform="matrix(0.8098,0,0,0.8098,237.76629,-292.92742)" x2="-256.93" y2="394.36">
			<stop stop-color="#42BEEE" offset="0.07"/>
			<stop stop-color="#355FAC" offset="0.93"/>
		</linearGradient>
		<linearGradient id="SVGID_7_" x1="-238.88" gradientUnits="userSpaceOnUse" y1="434.45" gradientTransform="matrix(0.8098,0,0,0.8098,205.69839,-339.42152)" x2="-236.16" y2="422.66">
			<stop stop-color="#42BEEE" offset="0.05"/>
			<stop stop-color="#355FAC" offset="0.95"/>
		</linearGradient>
		<linearGradient id="SVGID_8_" x1="-242.07" gradientUnits="userSpaceOnUse" y1="437.4" gradientTransform="matrix(0.8098,0,0,0.8098,255.06269,-336.67442)" x2="-240.48" y2="430.5">
			<stop stop-color="#42BEEE" offset="0.11"/>
			<stop stop-color="#355FAC" offset="0.89"/>
		</linearGradient>
		<linearGradient id="SVGID_16_" x1="-237.19" gradientUnits="userSpaceOnUse" y1="439.33" gradientTransform="matrix(0.8098,0,0,0.8098,244.91619,-301.41472)" x2="-235.3" y2="431.14">
			<stop stop-color="#42BEEE" offset="0.03"/>
			<stop stop-color="#355FAC" offset="0.97"/>
		</linearGradient>
		<linearGradient id="SVGID_17_" x1="-237.64" gradientUnits="userSpaceOnUse" y1="433.2" gradientTransform="matrix(0.8098,0,0,0.8098,241.11399,-336.20082)" x2="-234.69" y2="420.44">
			<stop stop-color="#42BEEE" offset="0.03"/>
			<stop stop-color="#355FAC" offset="0.97"/>
		</linearGradient>
		<linearGradient id="SVGID_18_" x1="-235.21" gradientUnits="userSpaceOnUse" y1="435.1" gradientTransform="matrix(0.8098,0,0,0.8098,210.39419,-341.24382)" x2="-234.2" y2="430.7">
			<stop stop-color="#42BEEE" offset="0.03"/>
			<stop stop-color="#355FAC" offset="0.97"/>
		</linearGradient>
		<linearGradient id="linearGradient3158" y2="442.85" gradientUnits="userSpaceOnUse" x2="-254.41" gradientTransform="matrix(0.8098,0,0,0.8098,233.4489,-311.9356)" y1="412.82" x1="-246.36">
			<stop stop-color="#C3C6C8" offset="0.34"/>
			<stop stop-color="#FFF" offset="0.66"/>
		</linearGradient>
		<linearGradient id="linearGradient3162" y2="444.15" gradientUnits="userSpaceOnUse" x2="-359.8" gradientTransform="matrix(0.8098,0,0,0.8098,349.926,-304.1319)" y1="450.56" x1="-371.38">
			<stop stop-color="#42BEEE" offset="0.13"/>
			<stop stop-color="#355FAC" offset="0.87"/>
		</linearGradient>
		<linearGradient id="linearGradient3165" y2="389.51" gradientUnits="userSpaceOnUse" x2="-406.38" gradientTransform="matrix(0.8098,0,0,0.8098,349.926,-304.1319)" y1="392.76" x1="-412.48">
			<stop stop-color="#42BEEE" offset="0.01"/>
			<stop stop-color="#355FAC" offset="0.99"/>
		</linearGradient>
		<linearGradient id="linearGradient3168" y2="394.83" gradientUnits="userSpaceOnUse" x2="-367.99" gradientTransform="matrix(0.8098,0,0,0.8098,349.926,-304.1319)" y1="397.74" x1="-373.45">
			<stop stop-color="#42BEEE" offset="0.06"/>
			<stop stop-color="#355FAC" offset="0.94"/>
		</linearGradient>
		<linearGradient id="linearGradient3174" y2="421.78" gradientUnits="userSpaceOnUse" x2="-236.69" gradientTransform="matrix(0.8098,0,0,0.8098,245.1818,-286.3643)" y1="433.71" x1="-239.45">
			<stop stop-color="#42BEEE" offset="0.05"/>
			<stop stop-color="#355FAC" offset="0.95"/>
		</linearGradient>
		<linearGradient id="linearGradient3177" y2="431.48" gradientUnits="userSpaceOnUse" x2="-236.64" gradientTransform="matrix(0.8098,0,0,0.8098,242.9304,-335.1895)" y1="439.9" x1="-238.58">
			<stop stop-color="#42BEEE" offset="0.05"/>
			<stop stop-color="#355FAC" offset="0.95"/>
		</linearGradient>
		<linearGradient id="linearGradient3180" y2="421.4" gradientUnits="userSpaceOnUse" x2="-232.49" gradientTransform="matrix(0.8098,0,0,0.8098,206.2126,-331.836)" y1="430.64" x1="-234.62">
			<stop stop-color="#42BEEE" offset="0"/>
			<stop stop-color="#355FAC" offset="1"/>
		</linearGradient>
		<linearGradient id="linearGradient3183" y2="278.45" gradientUnits="userSpaceOnUse" x2="-514.35" gradientTransform="matrix(0.175,0.041,0,0.1279,107.4829,-12.6611)" y1="334.98" x1="-527.4">
			<stop stop-color="#42BEEE" offset="0.08"/>
			<stop stop-color="#355FAC" offset="0.92"/>
		</linearGradient>
		<linearGradient id="linearGradient3186" y2="367.88" gradientUnits="userSpaceOnUse" x2="-351.06" gradientTransform="matrix(0.2914,0.0709,0,0.221,161.649,-54.2026)" y1="424.4" x1="-364.11">
			<stop stop-color="#42BEEE" offset="0.07"/>
			<stop stop-color="#355FAC" offset="0.93"/>
		</linearGradient>
		<linearGradient id="linearGradient3189" y2="420.56" gradientUnits="userSpaceOnUse" x2="-258.19" gradientTransform="matrix(0.4735,0.1098,0,0.4185,193.574,-86.8952)" y1="477.54" x1="-268.24">
			<stop stop-color="#42BEEE" offset="0.21"/>
			<stop stop-color="#355FAC" offset="0.79"/>
		</linearGradient>
		<linearGradient id="linearGradient3192" y2="436.65" gradientUnits="userSpaceOnUse" x2="-189.59" gradientTransform="matrix(0.8574,0.076,0,0.7761,197.8544,-308.3427)" y1="493.34" x1="-201.64">
			<stop stop-color="#42BEEE" offset="0.08"/>
			<stop stop-color="#355FAC" offset="0.92"/>
		</linearGradient>
		<linearGradient id="linearGradient3201" y2="437.82" gradientUnits="userSpaceOnUse" x2="-249.23" gradientTransform="matrix(0.8098,-0.0241,0,0.7863,362.8478,-298.6768)" y1="409.17" x1="-251.23">
			<stop stop-color="#C3C6C8" offset="0.42"/>
			<stop stop-color="#FFF" offset="0.58"/>
		</linearGradient>
		<linearGradient id="linearGradient3207" y2="459.48" gradientUnits="userSpaceOnUse" x2="-216.29" gradientTransform="matrix(0.8098,0,0,0.8098,299.4382,-319.4991)" y1="426.34" x1="-218.61">
			<stop stop-color="#C3C6C8" offset="0.42"/>
			<stop stop-color="#FFF" offset="0.58"/>
		</linearGradient>
	</defs>
	<path d="m66.26,13.168,17.743-0.174,2.156,3.263-0.193,8.245,17.048-15.119,21.657-0.066,2.288,3.474-5.071,10.771,4.325,0.051,2.256,3.334-6.117,14.462c1.42-0.618,1.932-0.949,2.683-2.86l6.046-14.921,9.508-0.047,4.054-10.542,15.974,0.042,2.033,3.378c-1.095,3.161-2.189,6.323-3.283,9.485,5.336-0.583,11.807,1.352,15.511,5.112,5.891,7.1,6.454,13.129,2.958,18.218-0.426,2.41-0.947,4.819-1.607,7.229-12.1,3.266-21.77,2.199-28.505-4.097l-7.302,0.063-1.814,4.712-17.156-0.146-0.187-0.477c-5.565,2.186-10.474,2.066-14.724-0.356l-2.666,5.495-22.899,1.243-2.078-3.272,3.879-8.091-0.782,0.773-13.155-0.143-2.338-3.491-8.144,15.649-22.205,1.297-1.218-3.024,31.325-49.47z" fill-rule="evenodd" clip-rule="evenodd" fill="#2a307d"/>
	<polygon points="78.437,46.579,69.862,46.579,69.037,46.579,69.053,45.756,69.339,31.034,54.829,58.33,54.615,58.732,54.162,58.76,40.542,59.584,38.943,59.681,39.817,58.335,67.421,15.847,67.66,15.479,68.095,15.477,80.723,15.402,81.552,15.397,81.536,16.224,81.236,31.631,103.76,12.004,104.3,11.805,119.76,11.805,121.04,11.805,120.49,12.959,120.49,12.959,100.38,55.538,100.18,55.973,99.702,56.002,84.162,56.944,82.775,57.028,83.387,55.78,96.983,28.042,79.013,46.335,78.773,46.579" fill="#34527a" transform="translate(0.00391,-0.00138)"/>
	<polygon fill-rule="evenodd" transform="translate(0.00391,-0.00138)" points="80.726,16.211,80.392,33.442,104.3,12.615,119.76,12.615,119.76,12.615,99.654,55.193,84.114,56.133,99.91,23.911,78.437,45.769,69.862,45.769,70.215,27.662,54.114,57.95,40.495,58.775,68.098,16.286" clip-rule="evenodd" fill="url(#SVGID_1_)"/>
	<path d="m111.96,25.968h10.642l-0.457,1.116-5.46,13.315c-0.308,0.75-0.448,1.374-0.448,1.885,0,0.396,0.088,0.709,0.25,0.943,0.163,0.236,0.416,0.42,0.742,0.554,0.456,0.187,1.053,0.273,1.751,0.273,1.649,0,3.397-0.142,4.862-0.681,1.372-0.503,2.51-1.366,3.08-2.814l5.542-14.076,0.203-0.516h10.671l-0.361,1.069-8.04,23.694-0.187,0.551h-12.049l0.434-1.104,0.533-1.353c-0.449,0.244-0.922,0.488-1.418,0.729-3.268,1.58-7.295,2.867-11.021,2.813-1.54-0.021-3.045-0.307-4.321-0.909-1.066-0.503-1.972-1.227-2.61-2.201s-1.002-2.184-0.98-3.651c0.021-1.568,0.487-3.447,1.536-5.668l6.376-13.505,0.221-0.465h0.509v0.001z" fill="#34527a"/>
	<path d="m111.96,26.778h9.438c-1.82,4.438-3.64,8.876-5.46,13.314-1.391,3.392,0.192,4.772,3.043,4.772,3.453,0,7.357-0.612,8.695-4.012,1.846-4.692,3.693-9.384,5.541-14.075h8.994c-2.681,7.897-5.36,15.796-8.04,23.694h-10.282c0.467-1.188,0.934-2.374,1.401-3.561-3.39,2.239-9.026,4.718-14.052,4.646-5.027-0.071-9.521-3.087-5.655-11.275,2.127-4.501,4.252-9.002,6.377-13.503z" fill-rule="evenodd" clip-rule="evenodd" fill="url(#linearGradient3207)"/>
	<polygon points="146.02,15.999,146.22,15.477,146.77,15.477,146.77,15.477,155.94,15.477,157.07,15.477,156.7,16.552,146.35,46.035,146.16,46.579,145.59,46.579,135.56,46.579,134.38,46.579,134.8,45.481" fill="#34527a" transform="translate(0.00391,-0.00138)"/>
	<polygon fill-rule="evenodd" transform="translate(0.00391,-0.00138)" points="146.77,16.287,155.94,16.287,145.59,45.769,135.56,45.769,146.77,16.287" clip-rule="evenodd" fill="url(#SVGID_3_)"/>
	<path d="m161.59,33.348c-0.061,0-0.129,0.002-0.203,0.003h-0.039c-2.33-0.053-4.092,0.865-5.083,1.95-0.085,0.091-0.162,0.183-0.232,0.271l10.282,1.012c-0.07-0.854-0.563-1.624-1.327-2.196-0.863-0.645-2.06-1.04-3.398-1.04zm13.51,8.856c-0.021,0.06-0.049,0.131-0.084,0.212v0.003c-0.023,0.055-0.055,0.121-0.095,0.198l-0.255,0.503-0.555-0.063-19.494-2.179c-0.004,0.049-0.006,0.097-0.008,0.146-0.045,1.089,0.473,1.909,1.23,2.518,0.84,0.675,1.979,1.115,3.035,1.385,0.889,0.228,1.71,0.331,2.254,0.354l0.033,0.001c0.473,0.02,0.989,0.027,1.531,0.025,0.542-0.003,1.131-0.017,1.746-0.041,3.059-0.124,6.506-0.521,7.912-1.236l1.428-0.726-0.264,1.58-0.002,0.01v0.002c-0.063,0.365-0.127,0.734-0.189,1.098-0.348,2.022-0.675,3.927-0.979,4.777l-0.139,0.388-0.399,0.115-0.021,0.006-0.004,0.004c-0.429,0.123-0.896,0.241-1.396,0.354-0.495,0.111-0.989,0.211-1.481,0.296-2.598,0.45-5.541,0.627-8.583,0.477l-0.028-0.001c-1.064-0.054-2.141-0.168-3.206-0.344-1.063-0.176-2.093-0.41-3.065-0.706-5.201-1.581-9.152-4.923-9.152-10.394,0-0.805,0.068-1.571,0.197-2.299,0.654-3.666,2.85-6.302,5.748-8.018,2.838-1.68,6.352-2.466,9.73-2.466,1.251,0,2.487,0.107,3.666,0.317,0.502,0.09,0.99,0.191,1.461,0.305,3.176,0.765,5.867,2.116,7.63,4.142,1.804,2.071,2.628,4.808,2.007,8.284-0.053,0.296-0.114,0.592-0.186,0.886l-0.023,0.087z" fill="#34527a"/>
	<path d="m174.34,41.938c-0.041,0.115-0.088,0.222-0.139,0.321l-20.248-2.263c-1.213,4.74,4.982,6.01,7.146,6.099,3.376,0.14,9.5-0.261,11.621-1.339-0.412,2.364-0.801,4.813-1.136,5.749-3.101,0.892-7.06,1.308-11.222,1.102-7.514-0.372-14.682-3.624-14.682-10.635,0-9.747,10.557-13.066,18.395-11.667,7.055,1.259,12.06,5.174,10.265,12.633zm-12.974-9.39c3.178-0.095,5.77,1.819,5.77,4.253,0,0.229-0.03,0.453-0.089,0.672l-12.303-1.21c0.571-1.727,2.992-3.798,6.622-3.715z" fill-rule="evenodd" clip-rule="evenodd" fill="url(#linearGradient3201)"/>
	<path d="m154.09,42.588c1.129,2.638,5.315,3.438,7.016,3.507,3.377,0.139,9.5-0.261,11.621-1.339-0.075,0.43-0.148,0.861-0.222,1.287-2.457,0.918-7.985,1.257-11.131,1.127-1.912-0.079-6.97-1.08-7.284-4.582zm-29.506,7.886h-0.691c0.25-0.636,1.106-2.919,1.356-3.554,0.321-0.195,0.921-0.777,0.817-0.444-0.252,0.821-1.156,3.169-1.482,3.998zm-39.641,5.611-0.82,0.05,15.745-32.143,1.588-1.617-16.513,33.71zm-14.783-10.314h-0.29l0.32-17.979,0.301-0.565-0.331,18.544zm-28.651,12.945-1.007,0.061,27.604-42.488,12.628-0.075-0.021,0.853-12.338,0.073-26.866,41.576zm38.876-25.255,23.917-20.845h15.464l-0.396,0.851h-14.688l-24.322,21.327,0.025-1.333zm31.58-6.682h9.436c-0.146,0.359-0.181,0.38-0.328,0.738h-8.94c-2.104,4.459-4.321,9.252-6.425,13.71-1.441,3.318-1.596,6.194-0.408,8.075-1.709-2.191-1.434-5.377,0-8.396l6.665-14.127zm3.736,16.702c0.509,0.959,1.699,1.386,3.283,1.386,3.453,0,7.357-0.613,8.695-4.012,1.846-4.692,3.693-9.385,5.541-14.076h8.734c-0.121,0.358-0.13,0.381-0.252,0.738h-8.102c-1.848,4.692-3.807,9.721-5.653,14.413-1.339,3.398-5.242,4.012-8.696,4.012-2.082,0-3.487-0.738-3.55-2.461zm31.081-27.192h9.161l-0.266,0.738h-8.515l-11.07,28.752-0.485-0.002c0.011-0.032,10.762-28.404,11.175-29.488zm4.536,15.018c3.704-2.158,8.614-2.743,12.765-2.003,5.442,0.973,9.664,3.525,10.484,8.067-0.14-0.433-0.319-0.835-0.533-1.211-1.602-3.214-5.553-5.229-10.081-5.942-7.362-1.159-17.122,1.894-18.279,10.347,0.156-2.724,0.898-6.571,5.644-9.258zm15.813,5.217c0.007,0.092,0.011,0.185,0.011,0.278,0,0.228-0.03,0.452-0.089,0.671-4.094-0.396-8.188-0.795-12.281-1.191-0.234,0.334-0.409,0.671-0.518,0.998l13.067,1.269c0.058-0.22,0.089-0.443,0.089-0.672,0-0.475-0.097-0.929-0.279-1.353z" fill-rule="evenodd" clip-rule="evenodd" fill="#d1d3d4"/>
	<path d="m14.78,13.048c-0.122-0.029-0.244-0.062-0.367-0.095l-0.001,0.003c-0.364-0.101-0.743-0.226-1.127-0.376v-0.001c-1.982-0.773-3.877-2.159-4.701-4.131-0.19-0.454-0.3-0.862-0.333-1.277-0.034-0.414,0.011-0.831,0.129-1.306,0.002-0.007,0.059-0.173,0.062-0.18l0.37-0.879,0.856-2.029,0.001-0.005,0.003-0.006,0.004-0.011c0.117-0.34,0.285-0.654,0.499-0.937,0.21-0.277,0.462-0.524,0.749-0.738,1.286-0.959,3.391-1.299,5.705-0.756v0.001l0.001,0.001h0.004c0.413,0.096,0.811,0.215,1.188,0.351,0.385,0.138,0.757,0.297,1.113,0.471,1.896,0.93,3.385,2.365,3.979,3.864,0.602,1.52,0.264,2.301-0.215,3.411-0.023,0.055-0.032,0.073-0.108,0.253h-0.005l-0.598,1.419c-0.023,0.054-0.039,0.092-0.049,0.116h0.001c0.031-0.07,0.083-0.194,0.001,0.001-0.311,0.742-0.563,1.346-1.167,1.882l0.148,2.2c2.931-0.55,6.067-0.712,9.321-0.424l0.016,0.002c2.202,0.196,4.377,0.599,6.494,1.182,2.098,0.578,4.101,1.329,5.98,2.227,0.784,0.375,1.548,0.774,2.292,1.2l3.625-3.816c-0.316-0.299-0.618-0.607-0.893-0.919-1.584-1.8-2.676-4.063-1.954-6.617,0-0.002,0.032-0.093,0.033-0.095l0.105-0.281s0.019-0.047,0.019-0.048l1.258-2.982-0.001-0.001c0.014-0.036,0.029-0.071,0.04-0.094l0.002,0.002c0.193-0.439,0.443-0.841,0.745-1.201,0.319-0.383,0.689-0.72,1.101-1.009,1.975-1.384,5.127-1.837,8.619-0.99-0.036-0.008-0.084-0.018-0.007-0.001l0.018,0.004c0-0.001-0.001-0.001-0.002-0.001,0.001,0,0.002,0,0.003,0.001h0.008c0.012,0.002,0.009,0.002,0,0.001v0.001c0.786,0.191,1.546,0.437,2.272,0.728,0.728,0.291,1.428,0.63,2.091,1.006,3.522,2.005,5.963,5.13,5.963,8.096,0,1.122-0.354,1.931-0.736,2.807-0.078,0.177-0.164,0.375-0.172,0.394l-0.754,1.789-0.019,0.042-0.127,0.271c-0.001,0.002-0.042,0.084-0.043,0.086l-0.148,0.259c0,0.001-0.002,0.005-0.004,0.01h0.001c0.003-0.004,0.003-0.005,0,0.001,0,0.001-0.051,0.079-0.052,0.081-0.429,0.625-0.938,1.139-1.507,1.552-0.563,0.408-1.18,0.718-1.832,0.942-2.896,0.994-6.576,0.293-9.227-0.776l-3.767,3.967c5.915,4.867,9.644,11.491,9.644,18.485v0.005c0,1.925-0.284,3.776-0.817,5.528-0.086,0.283-0.181,0.566-0.282,0.851-0.501,1.403-1.167,2.737-1.978,3.992-0.357,0.801-0.759,1.572-1.21,2.323-0.424,0.704-0.879,1.371-1.369,2.013l5.134,4.548c0.194-0.082,0.39-0.158,0.586-0.229,0.434-0.155,0.908-0.296,1.418-0.42,2.473-0.601,5.348-0.609,8.397,0.098l0.006,0.002c1.241,0.287,2.453,0.682,3.619,1.164,1.167,0.484,2.283,1.055,3.33,1.694,5.477,3.35,9.273,8.718,9.273,13.926v0.003c0,1.625-0.465,3.211-1.075,4.716-0.337,0.834-0.708,1.616-1.065,2.364-0.476,1.099-1.742,2.603-2.522,3.284-0.882,0.769-1.864,1.364-2.916,1.807-4.963,2.093-11.49,0.724-16.11-1.611-0.337-0.171-0.639-0.332-0.954-0.524-0.7-0.428-1.402-0.903-2.088-1.422-0.787-0.596-1.563-1.256-2.304-1.973-3.876-3.75-6.567-8.912-4.549-14.357l-0.003-0.001c0-0.001,0.023-0.057,0.03-0.075l0.01-0.02c0.073-0.173,0.262-0.648,0.451-1.122,0.257-0.646,0.513-1.285,0.811-1.922l-5.334-4.725c-1.254,0.77-2.547,1.429-3.868,1.981-1.427,0.598-2.901,1.075-4.406,1.439-7.649,1.853-15.921,0.669-23.154-2.623l-0.009-0.005-0.004-0.002-0.033-0.015c-1.482-0.746-2.934-1.604-4.32-2.563-1.39-0.961-2.711-2.021-3.932-3.164-6.382-5.98-10.12-14.332-6.924-23.47,0-0.002,0.028-0.07,0.029-0.071l0.198-0.471c0.337-1.537,0.858-3.004,1.546-4.385,0.7-1.404,1.575-2.727,2.602-3.95,2.399-2.857,5.635-5.17,9.438-6.743l-0.199-3.002z" fill="#34527a"/>
	<polygon fill-rule="evenodd" transform="translate(0.00391,-0.00138)" points="78.973,85.844,78.466,86.146,77.935,86.422,77.38,86.673,76.802,86.898,76.203,87.095,75.583,87.265,74.942,87.409,74.284,87.522,73.606,87.608,72.913,87.664,72.204,87.688,71.479,87.684,70.741,87.647,69.989,87.58,69.226,87.479,68.452,87.346,67.667,87.18,66.883,86.982,66.108,86.756,65.345,86.501,64.593,86.221,63.855,85.915,63.131,85.584,62.421,85.229,61.727,84.852,61.051,84.454,60.393,84.034,59.752,83.594,59.132,83.136,58.533,82.66,57.955,82.167,57.4,81.659,56.868,81.136,56.362,80.599,55.881,80.049,55.427,79.489,55,78.917,54.602,78.334,54.232,77.745,53.895,77.146,53.587,76.542,53.313,75.93,53.072,75.314,52.866,74.695,52.694,74.073,52.56,73.449,52.462,72.824,52.403,72.2,52.383,71.577,52.396,71.078,52.435,70.589,52.5,70.114,52.588,69.649,52.702,69.197,52.839,68.756,53,68.33,54.266,65.327,54.105,65.753,53.969,66.194,53.854,66.647,53.766,67.111,53.701,67.586,53.662,68.075,53.649,68.574,53.669,69.197,53.728,69.822,53.826,70.446,53.96,71.07,54.132,71.693,54.338,72.312,54.58,72.927,54.854,73.539,55.161,74.143,55.499,74.742,55.868,75.332,56.266,75.915,56.693,76.486,57.147,77.047,57.628,77.596,58.134,78.133,58.666,78.656,59.221,79.165,59.798,79.658,60.398,80.133,61.019,80.591,61.659,81.031,62.317,81.451,62.994,81.849,63.688,82.226,64.397,82.582,65.121,82.912,65.859,83.219,66.611,83.499,67.374,83.753,68.149,83.98,68.933,84.177,69.718,84.343,70.492,84.476,71.256,84.577,72.007,84.645,72.746,84.681,73.47,84.686,74.179,84.661,74.873,84.605,75.55,84.52,76.208,84.406,76.849,84.263,77.469,84.092,78.068,83.895,78.646,83.67,79.201,83.419,79.732,83.144,80.239,82.841,80.72,82.516,81.174,82.165,81.601,81.792,82,81.394,82.368,80.975,82.707,80.534,83.013,80.071,83.288,79.586,83.528,79.083,83.528,79.083,82.262,82.085,82.021,82.589,81.747,83.074,81.44,83.536,81.102,83.977,80.733,84.396,80.335,84.794,79.908,85.167,79.454,85.518" clip-rule="evenodd" fill="url(#SVGID_5_)"/>
	<polygon fill-rule="evenodd" transform="translate(0.00391,-0.00138)" points="43.401,61,42.845,61.222,42.281,61.432,41.709,61.632,41.129,61.821,40.542,61.999,39.946,62.164,39.343,62.317,38.733,62.458,38.117,62.588,37.494,62.706,36.863,62.811,36.228,62.903,35.585,62.984,34.937,63.051,34.283,63.106,33.624,63.147,32.958,63.174,32.289,63.189,31.613,63.19,30.934,63.177,30.25,63.152,29.562,63.111,28.869,63.056,27.449,62.902,26.046,62.691,24.664,62.424,23.304,62.108,21.967,61.739,20.655,61.32,19.371,60.853,18.115,60.341,16.89,59.784,15.696,59.182,14.538,58.541,13.414,57.858,12.329,57.137,11.283,56.38,10.278,55.586,9.316,54.76,8.398,53.902,7.528,53.012,6.705,52.094,5.932,51.148,5.211,50.176,4.543,49.181,3.931,48.163,3.375,47.124,2.879,46.065,2.442,44.988,2.069,43.895,1.759,42.788,1.515,41.667,1.338,40.534,1.231,39.391,1.195,38.24,1.213,37.428,1.267,36.627,1.356,35.837,1.479,35.058,1.638,34.292,1.828,33.536,2.052,32.793,2.307,32.064,3.573,29.061,3.318,29.791,3.094,30.534,2.903,31.289,2.746,32.055,2.623,32.834,2.533,33.625,2.479,34.425,2.46,35.237,2.497,36.388,2.604,37.531,2.781,38.665,3.025,39.785,3.335,40.893,3.709,41.986,4.145,43.062,4.642,44.122,5.197,45.161,5.81,46.179,6.478,47.173,7.199,48.146,7.971,49.091,8.794,50.009,9.665,50.899,10.582,51.758,11.544,52.584,12.549,53.377,13.595,54.135,14.681,54.855,15.804,55.538,16.962,56.18,18.156,56.781,19.381,57.338,20.637,57.851,21.921,58.318,23.233,58.736,24.57,59.105,25.93,59.422,27.313,59.688,28.715,59.899,30.135,60.054,30.828,60.108,31.516,60.149,32.2,60.175,32.879,60.188,33.555,60.186,34.225,60.171,34.89,60.144,35.549,60.103,36.203,60.048,36.851,59.981,37.494,59.901,38.129,59.809,38.76,59.703,39.383,59.585,40,59.457,40.609,59.315,41.212,59.162,41.808,58.996,42.396,58.818,42.975,58.629,43.547,58.43,44.111,58.219,44.667,57.998,45.214,57.764,45.753,57.52,46.282,57.266,46.803,57,47.313,56.726,47.815,56.44,48.307,56.145,48.788,55.84,49.26,55.525,49.26,55.525,47.994,58.528,47.522,58.842,47.04,59.148,46.549,59.443,46.047,59.728,45.537,60.003,45.016,60.268,44.486,60.523,43.948,60.766" clip-rule="evenodd" fill="url(#SVGID_6_)"/>
	<polygon fill-rule="evenodd" transform="translate(0.00391,-0.00138)" points="14.506,11.723,13.946,11.536,13.406,11.318,12.888,11.072,12.395,10.801,11.929,10.506,11.494,10.193,11.092,9.86,10.728,9.512,10.402,9.153,10.119,8.782,9.88,8.404,9.69,8.021,9.55,7.635,9.464,7.25,9.435,6.868,9.464,6.499,9.55,6.154,10.816,3.151,10.731,3.496,10.701,3.865,10.731,4.248,10.816,4.632,10.956,5.019,11.146,5.402,11.385,5.78,11.668,6.15,11.994,6.51,12.358,6.857,12.76,7.19,13.195,7.504,13.661,7.798,14.153,8.07,14.672,8.316,15.212,8.533,15.772,8.72,16.348,8.874,16.456,8.899,16.563,8.922,16.668,8.943,16.774,8.964,16.88,8.983,16.985,9,17.089,9.017,17.192,9.031,17.192,9.031,15.926,12.034,15.823,12.019,15.719,12.002,15.614,11.986,15.508,11.966,15.402,11.946,15.296,11.924,15.189,11.902,15.082,11.876" clip-rule="evenodd" fill="url(#SVGID_7_)"/>
	<polygon fill-rule="evenodd" transform="translate(0.00391,-0.00138)" points="63.435,16.787,63.139,16.946,62.827,17.091,62.5,17.223,62.159,17.34,61.803,17.443,61.434,17.531,61.053,17.604,60.659,17.662,60.253,17.704,59.836,17.73,59.41,17.741,58.973,17.735,58.527,17.712,58.073,17.673,57.61,17.617,57.141,17.543,56.665,17.452,56.181,17.342,55.983,17.293,55.787,17.241,55.59,17.187,55.396,17.129,55.202,17.07,55.009,17.008,54.817,16.944,54.627,16.877,54.438,16.809,54.25,16.738,54.064,16.665,53.879,16.589,53.696,16.512,53.514,16.432,53.333,16.351,53.154,16.267,54.42,13.264,54.599,13.348,54.78,13.43,54.962,13.509,55.146,13.587,55.331,13.663,55.517,13.735,55.705,13.806,55.894,13.875,56.084,13.941,56.275,14.005,56.468,14.067,56.662,14.126,56.856,14.184,57.053,14.238,57.25,14.291,57.447,14.34,57.93,14.449,58.407,14.541,58.877,14.615,59.339,14.67,59.793,14.71,60.239,14.732,60.676,14.739,61.103,14.727,61.52,14.702,61.925,14.66,62.319,14.602,62.7,14.528,63.069,14.44,63.425,14.337,63.767,14.22,64.093,14.088,64.405,13.943,64.701,13.784,64.98,13.612,65.243,13.425,65.488,13.227,65.715,13.015,65.923,12.792,66.112,12.556,66.281,12.308,66.429,12.049,66.556,11.778,66.556,11.778,65.29,14.781,65.163,15.051,65.015,15.311,64.846,15.558,64.657,15.794,64.449,16.018,64.222,16.23,63.977,16.428,63.714,16.614" clip-rule="evenodd" fill="url(#SVGID_8_)"/>
	<path d="m30.14,15.328c15.284,1.354,27.674,12.466,27.674,24.817s-12.39,21.266-27.674,19.911-27.674-12.466-27.674-24.817,12.39-21.266,27.674-19.911z" fill-rule="evenodd" clip-rule="evenodd" fill="url(#linearGradient3192)"/>
	<path d="m68.94,60.058c8.441,1.958,15.284,8.944,15.284,15.604s-6.843,10.473-15.284,8.515-15.284-8.945-15.284-15.605,6.843-10.473,15.284-8.514z" fill-rule="evenodd" clip-rule="evenodd" fill="url(#linearGradient3189)"/>
	<path d="m57.45,1.6078c5.194,1.264,9.405,5.139,9.405,8.654,0,3.517-4.211,5.343-9.405,4.079-5.195-1.265-9.406-5.14-9.406-8.655,0.001-3.517,4.211-5.343,9.406-4.078z" fill-rule="evenodd" clip-rule="evenodd" fill="url(#linearGradient3186)"/>
	<path d="m16.35,1.4978c3.119,0.731,5.647,2.974,5.647,5.01,0,2.035-2.528,3.092-5.647,2.36s-5.647-2.975-5.647-5.01,2.528-3.091,5.647-2.36z" fill-rule="evenodd" clip-rule="evenodd" fill="url(#linearGradient3183)"/>
	<path d="m16.27,17.118-0.342-5.086,1.266-3.003,0.51,7.586c-0.486,0.156-0.964,0.324-1.434,0.503z" fill-rule="evenodd" clip-rule="evenodd" fill="url(#linearGradient3180)"/>
	<path d="m54.42,13.258-1.266,3.003-5.441,5.729c-0.307-0.232-0.621-0.459-0.938-0.682l7.645-8.05z" fill-rule="evenodd" clip-rule="evenodd" fill="url(#linearGradient3177)"/>
	<path d="m54.69,64.458-6.691-5.927,1.266-3.002,7.412,6.563c-0.814,0.673-1.485,1.467-1.987,2.366z" fill-rule="evenodd" clip-rule="evenodd" fill="url(#linearGradient3174)"/>
	<polygon fill-rule="evenodd" transform="translate(0.00391,-0.00138)" points="52.896,53.899,52.588,54.294,52.27,54.684,51.957,55.045,51.005,54.202,51.397,53.864,51.779,53.519,52.151,53.167,52.513,52.806,52.865,52.438,53.206,52.063,53.536,51.681,53.854,51.292,54.163,50.896,54.459,50.493,54.746,50.083,55.019,49.667,55.281,49.244,55.531,48.816,55.769,48.379,55.995,47.939,56.208,47.491,56.41,47.038,56.41,47.038,55.144,50.041,54.942,50.494,54.729,50.941,54.503,51.382,54.265,51.818,54.015,52.247,53.753,52.669,53.479,53.085,53.194,53.496" clip-rule="evenodd" fill="url(#SVGID_16_)"/>
	<polygon fill-rule="evenodd" transform="translate(0.00391,-0.00138)" points="48.034,12.169,47.75,11.743,47.5,11.311,47.285,10.875,47.105,10.438,46.963,10,46.86,9.56,46.797,9.123,46.775,8.687,46.788,8.364,46.824,8.05,46.885,7.747,46.967,7.455,47.073,7.173,48.339,4.17,48.233,4.452,48.151,4.745,48.091,5.048,48.054,5.361,48.042,5.685,48.063,6.12,48.126,6.558,48.229,6.997,48.371,7.435,48.551,7.873,48.767,8.308,49.017,8.74,49.3,9.167,49.617,9.587,49.963,10,50.338,10.405,50.742,10.798,51.172,11.182,51.627,11.553,52.107,11.91,52.607,12.251,52.607,12.251,52.607,12.252,52.607,12.252,50.396,14.581,50.361,14.555,49.906,14.185,49.476,13.801,49.072,13.408,48.697,13.002,48.351,12.589" clip-rule="evenodd" fill="url(#SVGID_17_)"/>
	<polygon fill-rule="evenodd" transform="translate(0.00391,-0.00138)" points="19.343,9.014,19.635,8.955,19.915,8.88,20.18,8.792,20.429,8.691,20.664,8.575,20.882,8.446,21.083,8.305,21.266,8.151,21.431,7.986,21.576,7.808,21.701,7.62,21.805,7.418,21.888,7.208,21.888,7.208,20.622,10.211,20.539,10.421,20.435,10.623,20.311,10.811,20.165,10.989,20,11.154,19.817,11.308,19.616,11.449,19.511,11.51" clip-rule="evenodd" fill="url(#SVGID_18_)"/>
	<path d="m45.07,20.198,7.546-7.944c0.568,0.37,1.175,0.71,1.813,1.013l-7.646,8.05c-0.556-0.389-1.127-0.763-1.713-1.119z" fill-rule="evenodd" clip-rule="evenodd" fill="url(#linearGradient3168)"/>
	<path d="m19.35,9.0078,0.472,7.016c-0.719,0.172-1.424,0.367-2.112,0.588l-0.511-7.587c0.78,0.106,1.509,0.095,2.151-0.017z" fill-rule="evenodd" clip-rule="evenodd" fill="url(#linearGradient3165)"/>
	<path d="m51.01,54.198,7.54,6.678c-0.685,0.344-1.313,0.749-1.873,1.212l-7.412-6.565c0.609-0.417,1.191-0.86,1.745-1.325z" fill-rule="evenodd" clip-rule="evenodd" fill="url(#linearGradient3162)"/>
	<path d="m31.97,28.288h-0.002c-1.358,0-2.567,0.366-3.412,0.951l7.796,1.059c-0.192-0.394-0.537-0.76-0.989-1.069-0.853-0.581-2.051-0.941-3.393-0.941zm-1.117,18.971-0.014-0.002h-0.003c-0.002-0.001-0.003-0.001-0.005-0.001h-0.001,0.001-0.002,0.001c-0.001,0-0.002,0-0.004-0.001l0.001,0.001c-0.001,0-0.001-0.001-0.001-0.001-1.068-0.088-2.151-0.239-3.229-0.455-1.07-0.215-2.116-0.493-3.119-0.837-5.344-1.834-9.408-5.505-9.408-11.32,0-0.919,0.095-1.797,0.274-2.631,0.768-3.582,3.058-6.196,6.036-7.907,2.887-1.659,6.431-2.462,9.827-2.462,1.438,0,2.86,0.146,4.203,0.433v-0.002l0.007,0.001,0.014,0.006c1.045,0.224,2.037,0.52,2.968,0.882,0.952,0.37,1.823,0.803,2.604,1.291,4.186,2.621,6.259,6.939,5.131,12.501-0.001,0.005-0.046,0.155-0.048,0.161-0.032,0.093-0.064,0.175-0.094,0.246l-0.002-0.001c-0.047,0.113-0.081,0.188-0.099,0.225-0.183,0.366-0.841,0.714-1.248,0.659l-17.88-2.429c0.043,0.298,0.192,0.624,0.419,0.965l0.016,0.019c0.104,0.152,0.226,0.309,0.364,0.462,0.155,0.172,0.317,0.33,0.484,0.472,0.974,0.821,2.501,1.513,4.729,1.675l0.019,0.002c0.495,0.035,0.984,0.061,1.453,0.073,0.519,0.012,1.055,0.016,1.594,0.008,2.72-0.039,5.601-0.345,6.946-1.007,0.858-0.423,1.885,0.336,1.731,1.281l-0.001,0.009v0.005c-0.063,0.375-0.127,0.753-0.19,1.126-0.349,2.082-0.678,4.041-0.996,4.949-0.09,0.257-0.585,0.712-0.85,0.778-0.023,0.005,0.012-0.001-0.028,0.008v-0.002c-0.473,0.124-0.939,0.234-1.394,0.326-0.469,0.095-0.972,0.183-1.502,0.261-2.64,0.391-5.62,0.485-8.687,0.235-0.007-0.002-0.012-0.002-0.017-0.002h-0.005v-0.001h-0.002c0.003,0,0.005,0,0.007,0.001z" fill="#34527a"/>
	<path d="m44.94,36.518c-0.042,0.117-0.087,0.226-0.138,0.327l-18.931-2.571c-0.576,0.943-0.366,1.995,0.314,3.002,0.959,1.418,3.001,2.893,6.502,3.147,3.376,0.247,8.512-0.007,10.633-1.053-0.413,2.423-0.801,4.932-1.136,5.886-3.1,0.823-7.059,1.13-11.222,0.79-7.513-0.613-14.681-4.183-14.681-11.402,0-9.585,11.05-13.06,18.888-11.378,7.056,1.513,11.183,6.294,9.771,13.252zm-12.973-9.444c3.178,0,5.77,1.768,5.77,3.934,0,0.235-0.031,0.465-0.089,0.689l-11.315-1.537c0.57-1.762,2.882-3.086,5.634-3.086z" fill-rule="evenodd" clip-rule="evenodd" fill="url(#linearGradient3158)"/>
</svg>
