<?xml version="1.0" encoding="UTF-8" standalone="no"?>
<svg xmlns:rdf="http://www.w3.org/1999/02/22-rdf-syntax-ns#" xmlns="http://www.w3.org/2000/svg" height="85" width="414" version="1.1" xmlns:cc="http://creativecommons.org/ns#" xmlns:dc="http://purl.org/dc/elements/1.1/">
	<title>eMuleFans.com Logo</title>
	<metadata>
		<rdf:RDF>
			<cc:Work rdf:about="">
				<dc:format>image/svg+xml</dc:format>
				<dc:type rdf:resource="http://purl.org/dc/dcmitype/StillImage"/>
				<dc:title>eMuleFans.com Logo</dc:title>
				<cc:license rdf:resource="http://www.gnu.org/licenses/gpl-2.0.html"/>
				<dc:date>January 2009</dc:date>
				<dc:description>eMuleFans.com Logo</dc:description>
				<dc:source>http://emulefans.com/logo.svg</dc:source>
				<dc:language>en-US</dc:language>
				<dc:subject>
					<rdf:Bag>
						<rdf:li>eMuleFans</rdf:li>
						<rdf:li>Logo</rdf:li>
						<rdf:li>eMule</rdf:li>
					</rdf:Bag>
				</dc:subject>
				<dc:rights>
					<cc:Agent>
						<dc:title>eMuleFans.com</dc:title>
					</cc:Agent>
				</dc:rights>
				<dc:identifier>http://emulefans.com/</dc:identifier>
			</cc:Work>
		</rdf:RDF>
	</metadata>
	<path d="m75.648,72.357c1.8095,4.8637,3.585,9.7591,7.491,12.528-7.6342-0.16924-10.96-4.651-13.111-10.303,1.9984-0.61692,3.7846-1.4465,5.6201-2.2255z" fill="#c1c1c1"/>
	<path d="m59.613,24.709c-0.21041,3.9289-2.1354,6.1378-3.7515,8.6596,10.887,8.7062,14.424,24.752,19.908,38.863,1.3027-0.85956,2.9323-1.4192,4.4499-2.6861,1.0655-0.89091,2.9502-2.7891,2.8114-4.4455-0.04924-0.582-0.86401-1.4863-1.4147-2.4623-2.4443-4.356-4.7677-9.1149-7.1315-13.865-1.2311-0.52827-2.3861-1.1371-3.4426-1.8624-3.4605-2.3701-5.8198-5.9332-5.8198-10.562,0-1.3099,0.17012-2.5258,0.47454-3.6657-1.8937-2.9449-3.9037-5.6494-6.0839-7.9742z" fill="#ed7c7c"/>
	<path d="m40.758,52.686c-0.16519-5.443-10.451-5.0517-11.005-0.2337,3.7958-0.45574,8.5108-3.2269,11.005,0.2337zm15.103-19.202c7.7699,10.611,9.6523,27.111,14.05,41.096-6.7997,2.204-14.8,4.1375-23.299,4.7978-2.6964,0.21355-6.0736,0.8421-8.1947-0.70018,0.58019-2.2465,5.5203-2.6866,5.3837-5.3866-0.0967-1.9434-4.0873-3.0402-6.3216-2.8092-2.4031,0.24711-5.0041,1.9036-7.3759,2.9252-4.9253,2.1274-10.182,3.7919-14.167,6.4422-3.736,2.04-4.664,4.391-8.8984,5.151-6.8566-0.862-10.072-11.576-3.2774-14.751,2.9345,0.6778,10.654,6.144,5.3855,8.6623-0.76194,0.36666-1.8516,0.5632-1.7567,1.523,8.2368-0.67333,13.968-4.6662,19.201-8.3126,0.22697-0.15848,0.80761-0.32009,0.7024-0.70242-1.4505,0.5914-2.8436-0.16788-4.0967,0.23325-1.3005,0.41769-1.5543,1.9904-2.8105,2.3423-3.5689-1.6085-4.7579-5.5365-7.2582-8.194-1.0234-1.0897-2.4559-1.6367-2.9278-3.1656,2.5307-6.6499,8.0541-10.908,9.7177-18.496,0.29054-1.3216,0.34471-2.7882,0.11684-4.3305,12.201-9.266,18.566-24.365,24.588-39.808,4.2346,3.0031,8.6007,6.7028,11.473,11.825,2.8983,5.1676,3.8907,13.139,0.35142,18.383-1.2539,1.8575-6.2039,3.8308-3.3956,6.9069,1.1631-0.98669,1.681-2.6131,2.8105-3.6307zm-8.0805-8.8955c-0.62316-5.4304,1.0637-11.096,0.70196-16.392-0.07387-1.0816-0.16609-2.7918-0.93654-3.1616-0.68494,0.15311-0.12535,0.92805-0.23369,1.5217-1.5991,2.2407-6.4814,2.2653-5.5028,6.3236,0.77134-0.19295,1.0288-1.1743,1.6389-1.7567,1.0695-1.0221,2.5213-1.6341,4.3322-1.8727-0.24264,5.0853-6.2881,12.908,0,15.337zm-16.976,30.441c2.9354,2.978,12.498,3.0461,11.357-2.927-0.55736,0.85061-0.96071,1.4411-1.7558,1.8731-2.7344,1.4832-7.0885-0.97597-9.6009,1.0538z" fill="#7bc3ef"/>
	<g transform="matrix(0.44767565,0,0,0.4476865,1.5589708,0.00224)" fill="#0082d6">
		<path d="m898.97,90.83c1.3281-2.0312,2.9004-3.5742,4.7168-4.6289,1.8359-1.0742,3.8476-1.6113,6.0352-1.6113,3.7695,0.000034,6.6406,1.1621,8.6133,3.4863,1.9726,2.3242,2.9589,5.7032,2.959,10.137v19.98h-10.547v-17.109c-0.0916-2.3334,0.0863-5.2363-0.9668-7.002-0.68364-1.0547-1.7872-1.582-3.3105-1.582-1.9922,0.000026-3.5352,0.82034-4.6289,2.4609-1.0743,1.6406-1.6309,4.0137-1.6699,7.1191v16.113h-10.547v-17.109c-0.00002-3.6328-0.31252-5.9668-0.9375-7.002-0.62502-1.0547-1.7383-1.582-3.3398-1.582-2.0117,0.000026-3.5645,0.8301-4.6582,2.4902-1.0938,1.6406-1.6406,3.9942-1.6406,7.0606v16.143h-10.547v-32.812h10.547v4.8047c1.289-1.8554,2.7636-3.2519,4.4238-4.1895,1.6797-0.93747,3.5254-1.4062,5.5371-1.4062,2.2656,0.000034,4.2676,0.54691,6.0059,1.6406,1.7382,1.0938,3.0566,2.627,3.9551,4.5996"/>
		<path d="m821.2,86.407,0,8.5547c-1.4258-0.97654-2.8614-1.6992-4.3066-2.168-1.4258-0.46872-2.9102-0.7031-4.4531-0.70312-2.9297,0.000026-5.2149,0.8594-6.8555,2.5781-1.6211,1.6992-2.4317,4.0821-2.4316,7.1484-0.00002,3.0664,0.81053,5.459,2.4316,7.1777,1.6406,1.6992,3.9258,2.5488,6.8555,2.5488,1.6406,0.00001,3.1933-0.24413,4.6582-0.73242,1.4844-0.48827,2.8515-1.2109,4.1016-2.168v8.584c-1.6406,0.60547-3.3106,1.0547-5.0098,1.3476-1.6797,0.3125-3.3692,0.46875-5.0684,0.46875-5.918,0-10.547-1.5137-13.887-4.541-3.3398-3.0469-5.0098-7.2754-5.0098-12.686,0-5.4101,1.6699-9.6289,5.0098-12.656,3.3398-3.0468,7.9687-4.5703,13.887-4.5703,1.7187,0.000034,3.4082,0.15628,5.0684,0.46875,1.6797,0.293,3.3496,0.74222,5.0098,1.3477"/>
		<path d="m844.43,92.09c-2.3242,0.000026-4.1016,0.83987-5.332,2.5195-1.211,1.6602-1.8164,4.0625-1.8164,7.207-0.00002,3.1446,0.60545,5.5566,1.8164,7.2363,1.2304,1.6602,3.0078,2.4902,5.332,2.4902,2.2851,0.00001,4.0332-0.83007,5.2441-2.4902,1.2109-1.6797,1.8164-4.0918,1.8164-7.2363-0.00003-3.1445-0.60549-5.5469-1.8164-7.207-1.211-1.6797-2.959-2.5195-5.2441-2.5195m0-7.5c5.6445,0.000034,10.049,1.5235,13.213,4.5703,3.1836,3.0469,4.7754,7.2656,4.7754,12.656-0.00004,5.3906-1.5918,9.6094-4.7754,12.656-3.1641,3.0469-7.5684,4.5703-13.213,4.5703-5.6641,0-10.098-1.5234-13.301-4.5703-3.1836-3.0469-4.7754-7.2656-4.7754-12.656,0-5.3906,1.5918-9.6093,4.7754-12.656,3.2031-3.0468,7.6367-4.5703,13.301-4.5703"/>
	</g>
	<path d="m354.2,50.944a2.2384,2.2384,0,0,1,-4.4768,0,2.2384,2.2384,0,1,1,4.4768,0z" fill="#000"/>
	<g transform="matrix(0.48610512,0,0,0.47902729,-17.95368,-4.84722)">
		<path d="m319.6,150.16,0,17.91-11.348,0,0,4.375c-0.00002,0.54688,0.22784,0.93425,0.68359,1.1621,0.45571,0.22787,1.9596,0.3418,4.5117,0.3418,1.5494,0,3.1445-0.0456,4.7852-0.13672,1.276,0,2.0508-0.22786,2.3242-0.68359,0.27341-0.45573,0.50128-1.5495,0.6836-3.2812l3.0078,1.2305c-0.45576,2.8255-1.1849,4.4206-2.1875,4.7852-1.1849,0.45573-4.056,0.68359-8.6133,0.6836h-1.7774c-2.5521-0.00001-4.2155-0.25066-4.9902-0.75196-0.77475-0.5013-1.1621-1.2988-1.1621-2.3926v-5.332h-8.3398v1.7774h-2.7344v-19.688h11.074v-4.5117h2.7344v4.5117h11.348m-2.7344,7.6562,0-5.0586-8.6133,0,0,5.0586,8.6133,0m-11.348,0,0-5.0586-8.3398,0,0,5.0586,8.3398,0m-8.3398,2.5976,0,5.0586,8.3398,0,0-5.0586-8.3398,0m11.074,0,0,5.0586,8.6133,0,0-5.0586-8.6133,0"/>
		<path d="m326.49,146.75,10.391,0-0.95704,14.355,2.3242,0c-0.27345,7.474-0.77475,11.986-1.5039,13.535-0.72918,1.5495-1.9141,2.3242-3.5547,2.3242h-2.0508l-0.54688-2.5976c2.0052,0,3.099-0.0911,3.2812-0.27344,0.36458-0.36458,0.63801-1.1393,0.82032-2.3242,0.27342-1.7318,0.45571-4.4661,0.54687-8.2031h-8.3398l1.0938-12.305,2.4609,0.41015-0.68359,9.4336h3.5547l0.95703-12.031h-7.793v-2.3242m6.1523,19.414,0.54688,2.4609c-1.8229,1.3672-3.8737,2.5521-6.1523,3.5547l-0.95704-2.7344c2.3698-0.91145,4.5573-2.0052,6.5625-3.2812m6.5625-19.414,16.27,0,0,10.938-7.9297,0c-1.1849,1.6406-2.5977,3.0078-4.2383,4.1016,1.7318-0.0911,3.2812-0.27342,4.6484-0.54687,1.0937-0.91145,2.1875-1.8685,3.2812-2.8711l2.4609,0.82032c-3.2813,3.1901-6.6081,5.651-9.9805,7.3828,3.3724-0.36458,6.4258-0.82031,9.1602-1.3672l-1.6406-2.1875,2.1875-0.95703c1.5494,1.9141,2.8255,4.056,3.8281,6.4258l-2.1875,0.82031-1.0938-2.1875c-1.5495,0.36459-3.1901,0.6836-4.9219,0.95703v5.8789c-0.00002,1.1849-0.22788,2.0052-0.68359,2.4609-0.45575,0.45572-1.3672,0.68359-2.7344,0.68359-0.82034,0-1.5951-0.0911-2.3242-0.27344l-0.41016-2.3242c0.91144,0.0911,1.8229,0.13671,2.7344,0.13671,0.54685,0,0.82029-0.36458,0.82031-1.0938v-5.0586c-2.1875,0.27344-4.4206,0.50131-6.6992,0.68359l-0.82031-2.0508c2.1875-1.0026,4.2838-2.2331,6.2891-3.6914-1.7318,0.27344-3.5091,0.50131-5.332,0.68359l-0.41016-2.0508c1.914-1.1849,3.6002-2.6432,5.0586-4.375h-5.332v-10.938m2.5977,4.375,4.2383,0,0-2.1875-4.2383,0,0,2.1875m6.8359-2.1875,0,2.1875,4.375,0,0-2.1875-4.375,0m-6.8359,6.5625,4.2383,0,0-2.1875-4.2383,0,0,2.1875m6.8359-2.1875,0,2.1875,4.375,0,0-2.1875-4.375,0m3.8281,16.133c2.0052,1.8229,3.6002,3.737,4.7852,5.7422l-2.3242,1.2305c-1.0938-1.9141-2.5977-3.7826-4.5117-5.6055l2.0508-1.3672m-10.527,0.6836,2.0508,1.2305c-1.4584,2.0964-2.9167,3.737-4.375,4.9219l-1.9141-1.6406c1.7318-1.4583,3.1445-2.9622,4.2383-4.5117"/>
		<path d="m386.01,145.52,1.3672,2.5977c-6.9271,1.0026-15.449,1.5951-25.566,1.7773l-0.82031-2.5977c8.3854,0.00003,16.725-0.59242,25.02-1.7773m-19.414,4.6484c0.8203,1.0938,1.595,2.3242,2.3242,3.6914h4.2383l-1.3672-2.1875,2.3242-1.6406c0.82029,1.0938,1.595,2.3698,2.3242,3.8281h4.1016c1.0026-1.6406,1.7773-3.2812,2.3242-4.9219l2.7344,0.95703c-0.5469,1.4584-1.1394,2.78-1.7773,3.9648h4.375v5.4688h-2.7344v-3.0078h-22.422v3.1445h-2.7344v-5.6055h5.1953l-1.2305-2.0508,2.3242-1.6406m-6.5625,10.801,7.6562,0c0.54686-1.1849,1.0026-2.4154,1.3672-3.6914l2.8711,0.6836c-0.3646,1.0026-0.77476,2.0052-1.2305,3.0078h18.184v2.4609h-19.277l-1.2305,2.3242h17.363v2.1875c-1.6406,2.0964-3.737,3.7826-6.2891,5.0586,2.9166,0.82031,6.289,1.276,10.117,1.3672l-0.82032,2.7344c-5.2865-0.18229-9.7526-1.0026-13.398-2.4609-3.3724,1.0938-7.2917,1.9141-11.758,2.4609l-1.2305-2.7344c3.5547-0.36459,6.6992-0.86589,9.4336-1.5039l-2.4609-1.5039c-0.45574-0.36458-0.93426-0.77473-1.4356-1.2305-0.50131-0.45573-1.0254-1.0026-1.5723-1.6406-1.6406,2.0964-3.5091,3.8737-5.6055,5.332l-2.0508-1.9141c3.0078-2.0964,5.5599-4.9219,7.6562-8.4766h-6.2891v-2.4609m9.2969,6.9727c1.7318,1.5495,3.8281,2.8255,6.2891,3.8281,3.0078-1.0026,5.2409-2.2786,6.6992-3.8281h-12.988"/>
		<path d="m396.86,145.65,2.4609,0.54687-0.95703,5.6055,5.332,0c-0.27345,6.9271-1.3216,12.487-3.1445,16.68,1.276,1.4583,2.5065,2.9622,3.6914,4.5117l-2.3242,1.7773c-0.82032-1.3672-1.7318-2.6432-2.7344-3.8281-2.0052,2.8255-3.9648,4.9219-5.8789,6.2891l-1.6406-2.3242c2.0964-1.4583,3.9648-3.5547,5.6055-6.2891-1.3672-1.6406-2.8711-3.1901-4.5117-4.6484,0.91145-3.0989,1.6862-6.289,2.3242-9.5703h-3.418v-2.5977h4.1016l1.0938-6.1523m1.6406,20.508c1.276-3.0078,2.0508-6.9271,2.3242-11.758h-3.0078c-0.72917,3.1901-1.4583,6.1068-2.1875,8.75,1.0026,1.0026,1.9596,2.0052,2.8711,3.0078m7.1094-19.277,15.723,0,0,2.8711c-2.0052,2.3698-4.1927,4.5573-6.5625,6.5625v3.1445h8.4766v2.5977h-8.4766v12.578c-0.00003,0.82032-0.25068,1.4356-0.75196,1.8457-0.50132,0.41015-1.2988,0.61523-2.3926,0.61523-1.0026,0-1.9597-0.0911-2.8711-0.27344l-0.41015-2.4609c0.72914,0.18229,1.595,0.27343,2.5976,0.27343,0.91144,0,1.3672-0.13672,1.3672-0.41015v-12.168h-8.8867v-2.5977h8.8867v-4.5117c2.1875-1.8229,4.1015-3.6458,5.7422-5.4688h-12.441v-2.5976"/>
		<path d="m427.67,149.21,9.707,0,0-3.6914,2.7344,0,0,3.6914,7.1094,0,0,2.4609-7.1094,0,0,3.6914,2.5976,0c3.8281-2.3698,7.2461-4.9674,10.254-7.793l1.7773,2.0508c-2.1875,2.0964-4.5117,4.0104-6.9726,5.7422h8.3398v2.4609h-12.305l-6.5625,3.5547h14.902v15.723h-2.7344v-1.6406h-15.449v1.7773h-2.7344v-13.262c-1.8229,0.63803-3.6458,1.3216-5.4688,2.0508l-1.2305-2.5976c5.013-1.6406,9.5703-3.5091,13.672-5.6055h-13.535v-2.4609h12.715v-3.6914h-9.707v-2.4609m6.2891,18.047,15.449,0,0-3.418-15.449,0,0,3.418m0,5.7422,15.449,0,0-3.418-15.449,0,0,3.418"/>
		<path d="m475.87,172.17c-0.00002,1.68-1.05,3.5583-3.15,5.635-0.21001,0.21-0.59501,0.57166-1.155,1.085l-0.665-0.665c1.3533-1.4467,2.03-2.8,2.03-4.06-0.00001-0.49-0.23335-1.1667-0.7-2.03-0.30334-0.53666-0.45501-0.99166-0.455-1.365-0.00001-0.79333,0.34999-1.33,1.05-1.61,0.20999-0.0933,0.43165-0.13999,0.665-0.14,1.0266,0.00001,1.75,0.60667,2.17,1.82,0.13998,0.42,0.20998,0.86334,0.21,1.33"/>
		<path d="m518.01,145.52,1.3672,2.5977c-6.9271,1.0026-15.449,1.5951-25.566,1.7773l-0.82031-2.5977c8.3854,0.00003,16.725-0.59242,25.02-1.7773m-19.414,4.6484c0.8203,1.0938,1.595,2.3242,2.3242,3.6914h4.2383l-1.3672-2.1875,2.3242-1.6406c0.82029,1.0938,1.595,2.3698,2.3242,3.8281h4.1016c1.0026-1.6406,1.7773-3.2812,2.3242-4.9219l2.7344,0.95703c-0.5469,1.4584-1.1394,2.78-1.7773,3.9648h4.375v5.4688h-2.7344v-3.0078h-22.422v3.1445h-2.7344v-5.6055h5.1953l-1.2305-2.0508,2.3242-1.6406m-6.5625,10.801,7.6562,0c0.54686-1.1849,1.0026-2.4154,1.3672-3.6914l2.8711,0.6836c-0.3646,1.0026-0.77476,2.0052-1.2305,3.0078h18.184v2.4609h-19.277l-1.2305,2.3242h17.363v2.1875c-1.6406,2.0964-3.737,3.7826-6.2891,5.0586,2.9166,0.82031,6.289,1.276,10.117,1.3672l-0.82032,2.7344c-5.2865-0.18229-9.7526-1.0026-13.398-2.4609-3.3724,1.0938-7.2917,1.9141-11.758,2.4609l-1.2305-2.7344c3.5547-0.36459,6.6992-0.86589,9.4336-1.5039l-2.4609-1.5039c-0.45574-0.36458-0.93426-0.77473-1.4356-1.2305-0.50131-0.45573-1.0254-1.0026-1.5723-1.6406-1.6406,2.0964-3.5091,3.8737-5.6055,5.332l-2.0508-1.9141c3.0078-2.0964,5.5599-4.9219,7.6562-8.4766h-6.2891v-2.4609m9.2969,6.9727c1.7318,1.5495,3.8281,2.8255,6.2891,3.8281,3.0078-1.0026,5.2409-2.2786,6.6992-3.8281h-12.988"/>
		<path d="m528.86,145.65,2.4609,0.54687-0.95703,5.6055,5.332,0c-0.27345,6.9271-1.3216,12.487-3.1445,16.68,1.276,1.4583,2.5065,2.9622,3.6914,4.5117l-2.3242,1.7773c-0.82032-1.3672-1.7318-2.6432-2.7344-3.8281-2.0052,2.8255-3.9648,4.9219-5.8789,6.2891l-1.6406-2.3242c2.0964-1.4583,3.9648-3.5547,5.6055-6.2891-1.3672-1.6406-2.8711-3.1901-4.5117-4.6484,0.91145-3.0989,1.6862-6.289,2.3242-9.5703h-3.418v-2.5977h4.1016l1.0938-6.1523m1.6406,20.508c1.276-3.0078,2.0508-6.9271,2.3242-11.758h-3.0078c-0.72917,3.1901-1.4583,6.1068-2.1875,8.75,1.0026,1.0026,1.9596,2.0052,2.8711,3.0078m7.1094-19.277,15.723,0,0,2.8711c-2.0052,2.3698-4.1927,4.5573-6.5625,6.5625v3.1445h8.4766v2.5977h-8.4766v12.578c-0.00003,0.82032-0.25068,1.4356-0.75196,1.8457-0.50132,0.41015-1.2988,0.61523-2.3926,0.61523-1.0026,0-1.9597-0.0911-2.8711-0.27344l-0.41015-2.4609c0.72914,0.18229,1.595,0.27343,2.5976,0.27343,0.91144,0,1.3672-0.13672,1.3672-0.41015v-12.168h-8.8867v-2.5977h8.8867v-4.5117c2.1875-1.8229,4.1015-3.6458,5.7422-5.4688h-12.441v-2.5976"/>
		<path d="m559.67,147.16,26.25,0,0,2.5976-5.332,0,0,9.5703,7.3828,0,0,2.5977-7.3828,0,0,15.176-2.7344,0,0-15.176-9.8438,0c-0.91147,7.1094-3.8281,12.259-8.75,15.449l-2.0508-2.0508c4.5573-2.9167,7.2461-7.3828,8.0664-13.398h-8.3398v-2.5977h8.6133c0.0911-1.0026,0.13671-2.0508,0.13672-3.1445v-6.4258h-6.0156v-2.5976m8.75,2.5976,0,6.6992c-0.00001,1.0026-0.0456,1.9596-0.13672,2.8711h9.5703v-9.5703h-9.44"/>
		<path d="m620.84,146.34,0,2.4609-8.2031,0-1.3672,3.418,7.9297,0,0,12.852-6.1524,0,0,8.4766c-0.00002,1.3672-0.22788,2.3242-0.68359,2.8711-0.45575,0.54687-1.3216,0.82031-2.5977,0.82031-1.0026,0-2.0052-0.0911-3.0078-0.27344l-0.54687-2.7344c1.0937,0.18229,2.1875,0.27343,3.2812,0.27344,0.36456-0.00001,0.61521-0.0911,0.75195-0.27344,0.1367-0.18229,0.20506-0.63802,0.20508-1.3672v-7.793h-6.6992v-12.852h4.6484l1.3672-3.418h-8.3398v12.578c-0.00001,5.4688-1.4583,10.71-4.375,15.723l-2.3242-1.7773c2.6432-4.1016,3.9648-8.75,3.9648-13.945v-15.039h22.148m-14.492,11.074,10.254,0,0-2.7344-10.254,0,0,2.7344m0,5.1953,10.254,0,0-2.8711-10.254,0,0,2.8711m-0.13672,4.1016,2.3242,0.68359c-1.4584,3.2812-3.3724,5.8789-5.7422,7.793l-2.0508-1.6406c2.5521-2.1875,4.375-4.4661,5.4688-6.8359m10.527,0.13672c2.0052,2.0964,3.6458,4.2838,4.9219,6.5625l-2.4609,1.5039c-1.1849-2.2786-2.78-4.4661-4.7852-6.5625l2.3242-1.5039m-24.473-20.645c1.6406,1.2761,3.099,2.5977,4.375,3.9648l-2.0508,2.0508c-1.276-1.6406-2.7344-3.1445-4.375-4.5117l2.0508-1.5039m-1.0938,8.2031c1.7318,1.0938,3.3268,2.3698,4.7852,3.8281l-1.9141,2.1875c-1.4583-1.6406-3.0078-3.0534-4.6484-4.2383l1.7773-1.7773m2.7344,9.1602,2.1875,1.5039c-1.0026,4.1927-2.4609,8.2487-4.375,12.168l-2.3242-1.7773c1.9141-3.737,3.418-7.7018,4.5117-11.895"/>
		<path d="m630.73,153.31,0,6.4258,20.645,0c-0.27347,8.112-0.82035,12.988-1.6406,14.629-0.82034,1.6406-2.2787,2.4609-4.375,2.4609-1.2761,0-3.2813-0.18229-6.0156-0.54687l-0.54688-2.5977c3.0078,0.36459,5.1041,0.54688,6.2891,0.54688,1.1849,0,1.9596-0.5013,2.3242-1.5039,0.4557-1.5495,0.86586-5.013,1.2305-10.391h-20.645v-16.68h2.7344v5.0586h22.148v2.5977h-22.148m-7.1094,13.535,21.055,0,0,2.5976-21.055,0,0-2.5976"/>
		<path d="m676.45,145.79c3.3724,5.2865,6.9726,9.2969,10.801,12.031l-1.7773,3.0078c-3.8282-2.9166-7.5196-7.2005-11.074-12.852l2.0508-2.1875m-9.9805,0.13672,2.0508,1.6406c-3.0078,5.3776-6.6081,9.8893-10.801,13.535l-1.9141-2.5977c3.9193-3.0078,7.474-7.2005,10.664-12.578m-5.1953,13.262,20.234,0c-0.00003,8.4766-0.31904,13.535-0.95703,15.176-0.63805,1.6406-1.9597,2.4609-3.9648,2.4609-1.0938,0-2.3698-0.0911-3.8281-0.27343l-0.54687-2.8711c1.5495,0.18229,2.8711,0.27344,3.9648,0.27344,0.72914,0,1.2532-0.45573,1.5723-1.3672,0.31898-0.91145,0.56963-4.5117,0.75195-10.801h-8.4766c-0.27346,3.8281-1.2305,6.8815-2.8711,9.1602-1.6406,2.2786-4.4206,4.3294-8.3398,6.1523l-2.1875-2.3242c3.6458-1.6406,6.1979-3.418,7.6562-5.332s2.4154-4.4661,2.8711-7.6562h-5.8789v-2.5976"/>
		<path d="m704.94,145.52c0.72915,0.82034,1.276,1.6862,1.6406,2.5977h13.398v2.3242h-31.172v-2.3242h14.492c-0.27345-0.638-0.63803-1.2304-1.0938-1.7774l2.7344-0.82031m-11.484,6.8359,22.969,0,0,7.2461-22.969,0,0-7.2461m2.7344,4.6484,17.5,0,0-2.1875-17.5,0,0,2.1875m-3.9648,4.2383,24.199,0,0,3.0078c-3.0078,1.0938-6.3802,2.1419-10.117,3.1445v0.95703h13.262v2.5977h-13.262v3.6914c-0.00002,0.82032-0.31903,1.4583-0.95703,1.9141-0.63804,0.45572-1.5495,0.68359-2.7344,0.68359s-2.3698-0.13672-3.5547-0.41016l-0.41015-2.5976c0.91144,0.27343,2.0052,0.41015,3.2812,0.41015,1.0937,0,1.6406-0.18229,1.6406-0.54687v-3.1445h-14.492v-2.5977h14.492v-2.3242c2.5521-0.72916,4.8763-1.4583,6.9727-2.1875h-18.32v-2.5976"/>
		<path d="m740.53,145.79,2.7344,0.54687c-0.45575,1.7318-1.0482,3.418-1.7773,5.0586h10.664c-0.00003,12.031-0.41019,19.46-1.2305,22.285-0.63805,2.2786-2.142,3.418-4.5117,3.418-1.1849,0-2.5977-0.18229-4.2383-0.54687l-0.68359-2.8711c2.2786,0.36459,3.9192,0.54688,4.9219,0.54688,1.0937,0,1.7773-0.63802,2.0508-1.9141,0.54685-2.4609,0.82029-8.5677,0.82032-18.32h-9.1602c-1.0938,1.9141-2.2787,3.5091-3.5547,4.7852l-2.0508-1.9141c2.7344-3.0078,4.7396-6.6992,6.0156-11.074m1.0938,13.535c1.3672,2.0052,2.5065,4.2383,3.418,6.6992l-2.5976,1.2305c-0.91148-2.5521-2.0508-4.8307-3.418-6.8359l2.5977-1.0938m-7.6562-9.1602,0,24.746-2.4609,0,0-1.0938-6.2891,0,0,2.0508-2.4609,0,0-25.703,3.0078,0c0.45572-1.4583,0.77473-2.9622,0.95703-4.5117l2.8711,0.54687c-0.3646,1.4584-0.77475,2.78-1.2305,3.9648h5.6055m-2.4609,10.527,0-7.9297-6.2891,0,0,7.9297,6.2891,0m-6.2891,2.5977,0,7.9297,6.2891,0,0-7.9297-6.2891,0"/>
		<path d="m770.66,145.38c0.638,1.0026,1.1393,2.0964,1.5039,3.2812h13.125v6.2891h-2.7344v-3.8281h-24.336v3.8281h-2.7344v-6.2891h13.672c-0.45575-0.91143-0.91148-1.7317-1.3672-2.4609l2.8711-0.82031m-11.484,8.4766,22.422,0,0,2.4609-9.8438,0-1.7773,1.2305c1.7318,1.5495,2.9166,3.2813,3.5547,5.1953,2.9166-1.1849,5.5143-2.7344,7.793-4.6484l1.9141,2.1875c-1.5495,1.0938-3.099,2.0508-4.6484,2.8711,1.4583,3.9193,3.8281,6.9727,7.1094,9.1602l-1.9141,2.4609c-3.3724-2.5521-5.8789-6.0156-7.5195-10.391l-2.0508,0.82031c0.36456,1.276,0.54685,2.6888,0.54687,4.2383-0.00002,2.5521-0.41017,4.4889-1.2305,5.8106-0.82034,1.3216-2.0052,1.9824-3.5547,1.9824-1.1849,0-2.8711-0.13672-5.0586-0.41016l-0.68359-3.0078c2.0963,0.36458,4.0104,0.54688,5.7422,0.54688,0.54686,0,0.9798-0.41016,1.2988-1.2305,0.31899-0.82031,0.47849-2.0508,0.47851-3.6914v-1.5039c-4.2839,3.1901-9.388,5.651-15.312,7.3828l-1.3672-2.5977c6.3802-1.7318,11.758-4.2838,16.133-7.6562-0.18231-0.91145-0.41018-1.6406-0.6836-2.1875-4.0104,3.0078-8.4766,5.1498-13.398,6.4258l-1.3672-2.3242c5.1953-1.5495,9.6614-3.6458,13.398-6.2891-0.45575-0.54686-0.95705-1.0937-1.5039-1.6406-3.1901,1.7318-6.3346,3.0534-9.4336,3.9648l-1.7774-2.4609c4.1016-0.91144,7.8385-2.3242,11.211-4.2383h-8.4766v-2.4609"/>
		<path d="m806.53,145.65,2.7344,0-0.13672,12.031c-0.00002,0.18231,0.18227,0.82033,0.54688,1.9141,2.552-2.1875,4.5117-4.5117,5.8789-6.9726l2.3242,1.7773c-1.9141,3.0078-4.375,5.651-7.3828,7.9297,2.0052,5.5599,4.9674,9.6159,8.8867,12.168l-1.7774,2.7344c-4.4662-3.5547-7.5651-8.0208-9.2969-13.398-1.3672,6.0156-4.8308,10.436-10.391,13.262l-1.5039-2.3242c2.6432-1.5495,4.7396-3.3496,6.2891-5.4004s2.5748-4.3066,3.0762-6.7676c0.50128-2.4609,0.75194-8.112,0.75196-16.953m-5.332,6.2891,2.4609,0.95703c-1.0026,4.6485-2.3242,8.5677-3.9648,11.758l-2.3242-1.5039c1.6406-3.2812,2.9166-7.0182,3.8281-11.211m-5.6055-6.2891,2.7344,0.82031c-1.0026,2.6433-2.1875,5.2409-3.5547,7.793v22.832h-2.7344v-18.457c-1.0938,1.4584-2.2331,2.8255-3.418,4.1016l-1.3672-2.7344c3.9193-4.5573,6.6992-9.3424,8.3398-14.355"/>
	</g>
	<path d="m251.14,14.845c-3.5663,12.855-5.9254,26.239-9.7231,38.963-1.1879,2.9469-3.2398,5.4367-5.1483,8.0163,2.2979,0.0537,4.9638,1.2523,7.037,0.65756,6.0194-5.481,6.7921-13.966,8.6921-21.416,1.2156-5.0141,2.4312-10.028,3.6469-15.042h10.129c-0.17094-1.9046,2.7198-6.2076,0.33575-6.3236h-8.9956c0.66439-3.4945,2.0065-8.1054,6.2813-8.3941,2.2712-0.21182,4.5672,0.0362,6.5755,1.1472,0.31514-1.9692,3.8823-5.0893,2.0985-6.2958-8.51-3.4019-18.6,0.3946-20.94,8.6878z" fill="#F00"/>
	<path d="m285.78,19.084c-9.5471,0.0246-18.426,7.227-20.103,16.662-1.1264,5.3646-0.83106,12.519,4.5466,15.501,4.3405,2.2539,9.9299,1.4317,13.696-1.5529,0.33939,2.5349,2.112,2.7964,4.3644,2.0026,2.9228,0.17858,3.5191-0.86636,2.2668-3.3037-1.5496-6.7198,1.9337-13.226,3.0177-19.785,0.3048-2.5245,2.0096-5.6901,1.4662-7.826-2.7877-1.5029-6.1269-1.8014-9.2544-1.6989zm-0.196,6.4216c2.9474-0.45445,0.002,3.6254,0.17498,5.2769-0.95257,4.1277-2.207,8.2786-2.6792,12.449-2.2667,2.6487-7.4332,4.4702-9.835,1.1052-3.195-7.7915,2.5075-18.072,11.15-18.761,0.41506-0.0255,0.83501-0.0568,1.1893-0.0702z" fill="#F00"/>
	<path d="m313.06,19.084c-3.668,0.15157-7.2998,0.8784-10.786,1.9586-2.4362,10.24-4.9074,20.472-7.3589,30.709,2.3204-0.31148,5.6179,0.62225,7.3531-0.43483,2.1526-8.4116,3.9015-17.235,6.301-25.391,2.9222-0.41699,7.5577-1.3803,9.0793,2.0006,1.0668,4.6985-1.4844,9.4238-2.1721,14.067-0.78222,3.2528-1.5644,6.5058-2.3466,9.7587,2.3204-0.31148,5.6179,0.62224,7.3531-0.43484,1.4239-7.2704,4.1474-14.356,4.6222-21.767,0.227-4.3337-2.2849-8.973-6.729-9.961-1.706-0.54197-3.5361-0.57881-5.3161-0.50365z" fill="#F00"/>
	<path d="m342.48,18.986c-5.3936-0.0601-11.308,3.5721-11.626,9.3737-0.69765,3.8884,1.7443,7.6295,5.3162,9.0379,2.1457,1.3479,6.3946,2.265,5.8758,5.5822-0.87749,3.5367-5.4437,3.3834-8.338,2.9799-2.0407-0.34943-3.8818-1.1954-5.6801-2.1964-0.38157,2.142-4.0635,5.3682-1.7351,6.6387,5.7526,2.7162,13.234,3.1149,18.761-0.35732,5.3882-3.4414,5.7723-12.974-0.37773-15.851-2.7511-1.421-9.4692-3.639-5.792-7.6948,3.2764-2.3378,7.982-1.2235,11.332,0.54565,0.37473-2.105,3.8665-5.361,1.7627-6.5613-2.9788-1.241-6.2706-1.724-9.4992-1.497z" fill="#F00"/>
	<path d="m161.57,5.99c-1.7415,0-4.6737,1.1094-5.9899,2.2523l-23.042,20.076c-0.91326,0.79598-1.9877,1.2182-2.9502,0.76956-0.9625-0.44903-1.3117-1.5306-1.2893-2.7421l0.25518-13.193c0.0269-1.5723-1.1998-2.8209-2.7711-2.8119l-7.6687,0.0421c-1.6519,0.009-4.15,1.3708-5.0498,2.756l-11.904,18.327c0.67599,2.1802,0.77896,4.647,0.23727,7.317l-0.0134,0.056-0.0269,0.056c-0.0627,0.17102-0.1343,0.34472-0.21041,0.50365l-0.28203,0.57349-0.62675-0.0837-4.1858-0.57394-1.8579,2.8822c1.7012-0.22518,3.174-0.5793,3.9843-0.97953l1.5669-0.76913-0.29099,1.7348c-0.49244,2.9015-0.91326,5.8069-1.4012,7.2037l-0.15221,0.44769-0.46111,0.12535c-2.6323,0.70287-5.7258,1.0879-9.0386,1.1326l-4.3917,6.7735c-0.45663,0.69839-0.40738,1.0789-0.32233,1.2177,0.08058,0.13879,0.38052,0.37158,1.2177,0.32233l8.8685-0.54617c1.643-0.10298,3.9977-1.6072,4.7677-3.0667l15.812-29.741c0.2686-0.50409,0.52825-0.89403,0.83715-1.2034,0.31337-0.30935,0.78791-0.63482,1.4012-0.47544,0.60884,0.15847,0.87297,0.68317,0.99384,1.1049,0.12088,0.42172,0.14774,0.88463,0.13878,1.455l-0.28203,14.242c-0.0313,1.57,1.2132,2.8397,2.7845,2.8397h2.798c1.7146,0,4.535-1.1837,5.7347-2.4059l20.526-20.902c0.38948-0.39486,0.72076-0.68361,1.0476-0.89537,0.16564-0.10565,0.31785-0.1925,0.54616-0.25161,0.22832-0.06,0.61332-0.094,0.93565,0.13969,0.33127,0.23369,0.42976,0.60571,0.44767,0.83941,0.0269,0.23369-0.009,0.41187-0.0537,0.60169-0.0895,0.37919-0.25965,0.78972-0.5014,1.2871l-15.669,31.954c-0.36709,0.73421-0.27755,1.1685-0.11639,1.4102,0.17012,0.25071,0.54169,0.48798,1.3609,0.43426l11.161-0.67153c1.6295-0.094,3.8948-1.6296,4.5887-3.1025l4.2529-8.9976c0.20593-1.6296,0.7521-3.47,1.7236-5.5258,2.5518-5.4027,5.099-10.796,7.6508-16.201l0.23727-0.51754h0.89535l6.1824-13.109c0.34919-0.73152,0.28651-1.2123,0.0851-1.5248-0.19698-0.31338-0.61332-0.58781-1.4281-0.58781-3.6866,0.00193-7.3783-0.00341-11.062,0.00155z" fill="#0082d6"/>
	<path d="m168.03,23.002c-2.4667,5.233-4.9423,10.466-7.4135,15.697-2.2473,4.7562-1.9742,7.7145-0.68495,9.5277,1.2893,1.8131,3.8455,2.6996,6.6883,2.7398,5.7258,0.0851,12.414-2.8383,16.354-5.4394l2.3772-1.5539-1.0476,2.6284c-0.40291,1.0162-0.79239,2.037-1.1908,3.0532h10.382c3.0129-8.8839,6.0212-17.772,9.0386-26.653h-8.9401c-2.1444,5.4403-4.2798,10.883-6.4242,16.327-0.9043,2.298-2.7442,3.6952-4.7946,4.4487-2.0593,0.75391-4.3514,0.93746-6.4779,0.93746-1.8579,0-3.5053-0.43292-4.4499-1.6927-0.94907-1.2598-0.92669-3.0881-0.0269-5.2746,2.0145-4.9174,4.0246-9.8276,6.0436-14.745-3.1443-0.000824-6.2894,0.0015-9.4332-0.00066z" fill="#0082d6"/>
	<path d="m213.46,10.411c-1.5982,0-3.6665,1.4236-4.2395,2.9238l-10.798,28.386c-0.28651,0.74943-0.19698,1.2858,0.0537,1.6506,0.25518,0.36486,0.72524,0.64333,1.5266,0.64333h4.5484c1.3117,0,2.9009-0.97238,3.7202-2.1543-0.20146-0.85597-0.3089-1.7585-0.3089-2.7139,0-4.8843,2.1444-8.5795,5.305-11.08l5.3721-15.319c0.25966-0.75436,0.16117-1.2983-0.11639-1.6788-0.26861-0.38053-0.7521-0.65765-1.549-0.65765-1.1714-0.000005-2.343,0.000043-3.5142-0.00008z" fill="#0082d6"/>
	<path d="m227.27,25.674c-3.6083-0.0797-7.4001,0.63662-10.494,2.2384-1.9922,1.0297-3.6933,2.3996-4.9244,4.155-0.094,0.13162-0.17907,0.2695-0.26861,0.4056-0.094,0.15177-0.18802,0.30487-0.27755,0.46157-0.12154,0.23184-0.25457,0.48343-0.36263,0.68589-0.0403,0.0788-0.0761,0.15714-0.11192,0.23772-0.0492,0.10565-0.094,0.214-0.14326,0.32189-0.0716,0.17997-0.14325,0.35905-0.20593,0.54528-0.0761,0.20684-0.14773,0.415-0.2104,0.6299-0.0134,0.0372-0.0179,0.0743-0.0313,0.11192-0.0672,0.2516-0.13878,0.50678-0.1925,0.76957-0.12315,0.57564-0.17629,1.1691-0.23727,1.6645-0.0358,0.4065-0.0582,0.81569-0.0582,1.2455,0,3.9029,1.916,6.6535,5.0095,8.6189,3.089,1.9653,7.3687,3.0443,11.765,3.2592,4.6916,0.2328,9.1281-0.2328,12.66-1.1774,0.24174-0.81927,0.60883-2.8294,0.96698-4.8664-1.4594,0.43426-3.183,0.7566-5.1617,0.9491-2.7084,0.26861-5.587,0.34024-7.6687,0.25518-1.437-0.0627-3.9977-0.45216-6.1958-1.6663-1.1013-0.60707-2.113-1.4362-2.7577-2.5742-0.64018-1.1389-0.85954-2.5876-0.44768-4.1975l0.18355-0.75524,0.78343,0.0837,23.557,2.6445c0.87745-4.0484,0.004-6.975-2.028-9.1776-2.0996-2.2751-5.5288-3.7847-9.6384-4.519-1.1282-0.20146-2.31-0.32323-3.5098-0.34965zm0.39,2.463c0.0134-0.00045,0.0313,0.00045,0.0403,0,2.0862-0.0533,3.9888,0.5426,5.4169,1.5947,1.437,1.0597,2.3906,2.6279,2.3906,4.407,0,0.35188-0.0537,0.69032-0.13878,1.0212l-0.18354,0.75569-0.77001-0.0842-14.773-1.455-1.1013-0.098,0.34919-1.0628c0.85059-2.5822,4.0873-5.1681,8.77-5.0786z" fill="#0082d6"/>
	<path d="m83.701,23.114c-3.2367,0.0479-6.5808,0.74853-9.3878,2.1404-4.2753,2.1211-7.3016,5.6829-7.3016,11.095,0,4.0354,1.9384,6.9553,5.0364,9.08,3.0979,2.122,7.3732,3.3621,11.765,3.7203,2.6681,0.21937,5.2557,0.20147,7.6373-0.0134h0.02686c1.1908-0.10744,2.3279-0.25966,3.4023-0.46111,0.07163-0.0134,0.13878-0.0269,0.21041-0.0448,0.46558-0.0895,0.91326-0.18356,1.3565-0.291,0.24174-0.8506,0.60436-2.9234,0.9625-5.023-0.50587,0.14773-1.0431,0.27712-1.6072,0.39173-0.16116,0.0327-0.32233,0.068-0.48797,0.098-0.01791,0.003-0.02686,0.0112-0.04477,0.0139-0.72971,0.13029-1.4997,0.22206-2.3234,0.29369-0.04029,0.004-0.08058,0.0103-0.12535,0.0139-2.4174,0.20145-4.9961,0.20861-7.0778,0.0564-4.4275-0.32324-7.1718-2.2196-8.4924-4.1693-0.92669-1.3793-1.2848-3.1065-0.38948-4.5749l0.3089-0.50364,0.57302,0.0842,21.936,2.9798c0.06715-0.39934,0.12535-0.79106,0.16564-1.1752,0.009-0.0712,0.009-0.13922,0.01343-0.20996,0.02238-0.24399,0.03581-0.47544,0.04477-0.71316,0.0045-0.20414,0.01343-0.40247,0.01343-0.60169,0-0.23325,0-0.45889-0.01343-0.68586-0.01343-0.1952-0.02238-0.38277-0.04477-0.57349-0.21041-2.0356-0.94012-3.7986-2.0951-5.3019-1.925-2.4981-5.0856-4.3018-9.1639-5.1766-1.1281-0.2413-2.31-0.38053-3.5277-0.43381-0.476-0.021-0.962-0.014-1.368-0.014zm1.25,3.2603c2.0727,0,3.9575,0.56453,5.3855,1.5392,1.4281,0.97416,2.4354,2.413,2.4354,4.0713,0,0.35814-0.05372,0.70824-0.13878,1.0489l-0.19698,0.78345-0.79686-0.11192-13.587-1.8467-1.0476-0.154,0.32233-1.0073c1.0012-3.0316,4.0618-4.3101,7.624-4.3229z" fill="#0082d6"/>
</svg>
