<?xml version="1.0" encoding="UTF-8"?>
<svg xmlns="http://www.w3.org/2000/svg" version="1.1" height="51.279" width="300">
	<rect style="color:#000000;enable-background:accumulate;" fill-rule="nonzero" height="51.28" width="300" y="-0.00049973" x="0" fill="#000"/>
	<g transform="translate(-305.8392,-467.26791)">
		<path d="m470.61,507.82c1.367-4.1192,5.1905-20.621,2.2085-31.771-1.7727-6.6279-1.9863-6.8142-7.8104-6.8142h-5.9879l3.282,3.4936c5.0561,5.382,4.31,8.5821-2.0011,8.5821-5.1573,0-5.2831-0.1437-5.2831-6.0378,0-5.5808-0.31419-6.0377-4.151-6.0362l-4.151,0.001v31.696l4.151-0.00074c4.0251-0.00067,4.151-0.25248,4.151-8.3027v-8.302h6.7926c6.6271,0,6.7961,0.11955,6.9388,4.9058,0.29608,9.9312-0.37641,17.103-2.0522,21.886,0,0-0.20496,0.90717-1.7184,4.9043s-0.3849,2.632,1.5762,0.12885,2.6879-4.2152,4.0549-8.3344zm-158.99-8.3952c3.3208,0,6.0378-0.67926,6.0378-1.5094,0-0.83022-0.67926-1.5095-1.5095-1.5095-0.88052,0-1.5095-5.0315-1.5095-12.076,0-10.775,0.30305-12.076,2.8131-12.076,4.0376,0,10.219,6.7532,13.11,14.322,2.5082,6.5676,2.5304,19.796,0.0426,25.301-2.5296,5.5977,2.2072,2.4057,5.2338-3.5269,2.4853-4.8715,3.0622-8.4427,2.7441-16.985-0.37411-10.046-0.1074-11.112,3.7449-14.964,7.0592-7.0592,8.5388-5.7377,8.5388,7.626,0,7.1448-0.71214,12.486-1.8113,13.585-1.4088,1.4088-0.16772,1.8114,5.585,1.8114s6.9938-0.40254,5.585-1.8114c-1.1344-1.1344-1.8113-6.7758-1.8113-15.095v-13.283h-7.5958c-4.1777,0-9.9514,0.98422-12.83,2.1872-4.5711,1.9099-5.2346,1.9099-5.2346,0,0-1.7336-2.5886-2.1872-12.482-2.1872h-12.482l0.56422,11.173c0.31916,6.3198-0.13995,12.385-1.0568,13.962-2.5869,4.4507-2.0712,5.0532,4.325,5.0532zm59.706-4.9058c7.9336,6.9815,22.722,3.0511,25.558-6.7926,1.1715-4.0665-1.6426-4.6498-2.9259-0.60644-1.8244,5.7481-13.345,8.2285-16.84,3.6254-3.4194-4.5045-2.4717-6.4152,3.1819-6.4152,2.9057,0,5.2831-0.67926,5.2831-1.5095,0-0.8302-2.3774-1.5095-5.2831-1.5095-4.1631,0-5.2831-0.60119-5.2831-2.8358,0-4.3535,8.0946-7.1754,14.224-4.9588,6.7928,2.4563,9.2686,2.3369,7.0471-0.33978-2.1581-2.6003-13.105-5.4508-20.932-5.4508-5.7724,0-5.8982,0.1206-7.4781,7.1699-2.1803,9.7283-1.1532,15.574,3.4477,19.623zm36.899,3.398,5.2831,0.006-0.48826-12.834-0.48828-12.834,6.6016,0c11.641,0,13.473,5.1308,3.8091,10.666-5.9214,3.3914-6.1247,3.7058-2.6416,4.0843,2.0755,0.22553,7.1699-0.89068,11.321-2.4805,8.5713-3.2827,10.099-6.697,5.5239-12.347-2.673-3.301-4.2498-3.6566-18.562-4.1871l-15.641-0.5797v30.502zm76.008,3.0172,5.0631,0,0.19302-15.849,0.19299-15.849-4.4486,0-4.4486,0-0.4892,15.472c-0.26907,8.5096-0.63244,15.642-0.80752,15.849-0.17511,0.20754,1.96,0.37737,4.7448,0.37737zm11.541-16.855c0,9.3363,10.671,15.232,24.268,13.408,7.2321-0.97004,11.838-5.9131,11.908-12.78l0.0503-4.9057h-13.696c-12.169,0-13.64-0.29104-13.193-2.6104,0.86217-4.4768,7.517-5.6623,17.751-3.1621,7.798,1.9051,9.8636,1.9432,13.141,0.24276,6.0705-3.1494,8.6555-2.6537,7.1898,1.3787-0.67902,1.868-1.2677,8.5423-1.3082,14.832-0.0649,10.09,0.42806,12.193,4.1905,17.875,2.3452,3.5415,4.5909,6.1123,4.9903,5.7128,0.39945-0.39945-0.38277-5.0062-1.7383-10.237-2.5154-9.7073-2.0082-15.012,2.6228-27.427,1.843-4.9412,6.7478-5.5162,12.875-1.5094,3.1669,2.0709,3.758,2.1524,2.7362,0.37735-3.9023-6.7793-5.6452-7.5473-17.128-7.5473-9.6212,0-11.697,0.47235-14.063,3.2001-2.6763,3.0858-2.993,3.113-8.867,0.76272-3.3504-1.3406-11.893-2.8833-18.983-3.4283l-12.891-0.99091,1.842,4.0428c1.7478,4.467-1.6538,8.424-1.6988,12.767zm8.625-1.5203c12.151-0.96638,17.039,0.13215,17.013,3.8234-0.0358,5.0074-1.7572,6.5596-8.0755,7.2818-4.8631,0.55589-6.685-0.0863-10.944-3.8564-2.81-2.4878-5.1092-5.0092-5.1092-5.6031,0-0.59383,3.202-1.3344,7.1155-1.6456zm71.227,10.669c3.6556,3.9134,5.512,4.688,11.235,4.688,8.2915,0,17.229-4.8134,18.525-9.9765,1.4512-5.7822-0.75514-13.991-4.3979-16.363-1.8292-1.1909-8.4428-2.6247-14.697-3.1861l-11.371-1.0207-1.6112,6.5938c-2.7413,11.219-2.3781,14.238,2.3172,19.265zm5.676-15.094c0.35654-1.3328,2.3689-3.3441,4.472-4.4696,3.259-1.7442,4.4192-1.7136,7.856,0.20709,5.6294,3.146,6.5896,13.825,1.6298,18.127-4.4126,3.827-6.7884,3.6568-11.251-0.80608-3.4629-3.4629-4.2533-7.2762-2.7066-13.058z" fill="#F00"/>
	</g>
</svg>
