<?xml version="1.0" encoding="UTF-8" standalone="no"?>
<svg xmlns="http://www.w3.org/2000/svg" height="91.781" width="420.45" xmlns:xlink="http://www.w3.org/1999/xlink">
	<defs>
		<linearGradient id="lg0">
			<stop stop-color="#ffa5a5" offset="0"/>
			<stop stop-color="#ffecec" offset="1"/>
		</linearGradient>
		<linearGradient id="lg1" y2="91.771" xlink:href="#lg0" gradientUnits="userSpaceOnUse" gradientTransform="translate(1e-6,0)" x2="0" x1="30.5"/>
		<linearGradient id="lg2" xlink:href="#lg0" gradientUnits="userSpaceOnUse" x2="266.45" gradientTransform="translate(1e-6,0)" y1="45.017" x1="301.75"/>
	</defs>
	<rect style="color:#000000;" fill-rule="nonzero" height="91.78" width="420.45" y="-0.0028415" x="-0.00041933" fill="#000"/>
	<path d="m270.68,5.6472-19.938,58.719,19.25,0,12.75-37.625,8.8438,37.625,13.531,0,32.906-35.344-11.812,35.344,19.125,0,19.625-58.719-27.469,0-31.031,33.844-8.0625-33.844zm94.375,36.688c-3.8131-0.00056-7.5672,3.3078-8.4688,6.1875l-3.3438,10.094c-1.3951,3.6603,2.0847,5.7859,4.3438,5.75h18.688c1.7157,0.0243,5.4728-2.9837,6.4375-5.75l3.4688-10.094c1.0382-2.7719-1.2299-6.259-4.1562-6.1875zm27.906,0-7.8438,22.031,25.312,0c1.4863,0.073,4.0956-1.9695,5-4.2188l4.9062-13.375c0.80959-2.0477-3.3534-4.3524-5.0312-4.4375zm-25.656,5.1562,8.8438,0c1.5252-0.0372,2.7286,1.7761,2.1875,3.2188l-1.8125,5.25c-0.5028,1.4397-2.4495,3.0752-3.3438,3.0625h-9.75c-1.1774,0.0187-3.0083-1.1575-2.2812-3.0625l1.75-5.25c0.46988-1.4987,2.4189-3.219,4.4062-3.2188zm31.188,0.71875,10.594,0c0.79607,0.0403,2.7904,1.124,2.4062,2.0938l-2.3438,6.3438c-0.42907,1.0652-1.6698,2.0345-2.375,2h-12z" fill="url(#lg2)"/>
	<path d="m35.724-0.00285,4.2188,7.375-7.4688,0,2.8125,5.0312,7.5312,0,18.438,32.156-61.25,47.219,42-0.00007,37.281-29.812,18.406,29.812,38.812,0-18.469-31.375,5.3125,0,2-4.9688,10.5,0-1.6875,4.9688,8.2812,0s1.902-4.87,1.9375-6.4375-1.0625-2.1875-1.0625-2.1875,5.0711-5.8335,5.0312-8.75-1.5899-4.4752-3.875-4.6875h-21.656l-6.8125,18.594-7.3125-12.375,0.53125-0.40625h-1.75l-5,16.25h-7.2812l5.3438-16.25h-8.5312l1.2812-5.8125h23.344l33.062-25.938h-6.9375l6.5-5h6.8125l9.4375-7.4062h-39.594l-9.1875,7.4062h-6.2812l-6.4688,5h6.5312l-20.844,16.781-9.4375-16.781h-7.4062l-2.8125-5.0312h7.375l-4.1562-7.375zm119.25,38.344-7.9062,22.062,25.312,0,2.1562-6.0312-17.156,0,0.84375-2.0625,15.625,0,1.5-5.5312-15.25,0,0.84375-2.4062,16.375,0,2.0312-6.0312zm29.094,0-7.5,22.062,7.25,0,4.7812-14.156,3.3438,14.156,5.0938,0,12.375-13.281-4.4688,13.281,7.2188,0,7.375-22.062-10.344,0-11.656,12.719-3.0625-12.719zm40.906,0-7.9062,22.062,25.312,0,2.1562-6.0312-17.156,0,0.84375-2.0625,15.625,0,1.5-5.5312-15.25,0,0.84375-2.4062,16.375,0,2.0312-6.0312zm-96.094,5.9688,9.6875,0c0.59946,0.0224,1.2278,0.968,1.0938,1.8125-0.1341,0.8445-1.4081,2.4678-2.375,2.4688h-9.9375z" fill="url(#lg1)"/>
	<path d="m118.36,39.337-1.25,4.8125-9.6562,0-5,16.25-5.9375,0-0.34375,1,7.2812,0,5-16.25,9.6562,0,1.5-5.8125-1.25,0zm-25.156,4.8125-0.21875,1,7.1875,0,0.34375-1-7.3125,0z" fill="#FFF"/>
</svg>
